<?xml version="1.0" encoding="utf-8"?>
<!-- Generator: Adobe Illustrator 22.0.0, SVG Export Plug-In . SVG Version: 6.00 Build 0)  -->
<!DOCTYPE svg PUBLIC "-//W3C//DTD SVG 1.1//EN" "http://www.w3.org/Graphics/SVG/1.1/DTD/svg11.dtd">
<svg version="1.1" id="UW_x5F_Logo_x5F_2L_x5F_horz_x5F_white_x5F_type_x5F_cmyk"
	 xmlns="http://www.w3.org/2000/svg" xmlns:xlink="http://www.w3.org/1999/xlink" x="0px" y="0px" viewBox="0 0 123.4 152"
	 style="enable-background:new 0 0 123.4 152;" xml:space="preserve">
<style type="text/css">
	.st0{fill:#FFFFFF;}
	.st1{fill:#005596;}
	.st2{fill:#FFCF01;}
</style>
<g>
	<g>
		<path class="st0" d="M60.8,140.8c-70-27.3-48.2-120.3-48.2-120.3c12.6-6.6,41.3-9,48.2-9s35.5,2.4,48.2,9
			C108.9,20.5,130.7,113.6,60.8,140.8z"/>
		<path class="st1" d="M111.9,19.9l-0.3-1.3l-1.2-0.6C97,11,67.6,8.6,60.8,8.6c-6.7,0-36.2,2.3-49.6,9.4L10,18.5l-0.3,1.3
			c-0.2,1-5.5,24.1-2.2,51c2,15.9,6.6,29.8,13.7,41.3c9,14.5,21.9,25.1,38.5,31.5l1.1,0.4l1.1-0.4c16.6-6.5,29.5-17.1,38.5-31.5
			c7.1-11.5,11.7-25.4,13.7-41.3C117.4,43.9,112.1,20.8,111.9,19.9z M60.8,140.8c-70-27.3-48.2-120.3-48.2-120.3
			c12.6-6.6,41.3-9,48.2-9s35.5,2.4,48.2,9C108.9,20.5,130.7,113.6,60.8,140.8z"/>
		<g>
			<g>
				<path class="st1" d="M16.9,89.1c3.1,10.2,7.9,20.1,15.4,28.7L26.6,86C22.3,87.2,19,88.3,16.9,89.1L16.9,89.1z"/>
			</g>
			<g>
				<g>
					<path class="st1" d="M46.5,63.8l9.4-48.6C48.8,15.8,37,17,27.1,19.4l7.8,46.2C38.8,64.8,42.7,64.2,46.5,63.8L46.5,63.8z
						 M44,37.6c0,1.2,0.3,2.2,0.5,2.4c0,0-1.3,0.9-1.7,1.3c-0.4,0.4-2.1,2.4-2.1,2.4s-1.7-2-2.1-2.4c-0.4-0.4-1.7-1.3-1.7-1.3
						c0.3-0.1,0.5-1.1,0.5-2.4c0-1.5-0.9-2.8-2.1-2.8c-1.8,0-2.1,1.2-2.1,1.2s-1.7-1.6-1.7-3.1c0-3.4,1.9-3.2,2.7-3.2
						c1.9,0,4.4,2.9,4.4,2.9c-0.3-0.6-0.8-1.8-0.9-2.1c-0.1-0.1-0.1-0.3-0.2-0.5c-0.3-0.7-0.6-1.8-0.1-3.2c0.4-1.3,1.3-1.9,2.1-2.8
						c0.8-1,1.1-1.3,1.1-1.3s0.3,0.3,1.1,1.3c0.8,0.9,1.7,1.5,2.1,2.8c0.5,1.4,0.2,2.5-0.1,3.2c-0.1,0.2-0.1,0.4-0.2,0.5
						c-0.1,0.4-0.6,1.5-0.9,2.1c0,0,2.5-2.9,4.4-2.9c0.8,0,2.7-0.2,2.7,3.2c0,1.5-1.7,3.1-1.7,3.1s-0.2-1.2-2.1-1.2
						C44.9,34.8,44,36.1,44,37.6z"/>
				</g>
			</g>
			<g>
				<path class="st1" d="M24.5,73.7c1.7-0.5,3.5-0.9,5.2-1.3l0.4-0.1c0.7-0.2,1.5-0.3,2.2-0.5h0.1c0.2,0,0.4-0.1,0.6-0.1
					c1.1-0.2,1.9-0.4,2.8-0.6h0.1l0,0c3.2-0.6,6.4-1.1,9.4-1.5l0,0l0.1-0.4l0.8-3.9c-3.6,0.4-7.4,1-11.1,1.7
					c-3.8,0.7-7.7,1.6-11.5,2.6c-3.5,0.9-7,2-10.2,3.1l0,0l0,0c0.1,0.8,0.3,2.3,0.6,4.1c3.2-1.1,6.8-2.1,10.3-3.1L24.5,73.7z"/>
			</g>
			<g>
				<path class="st1" d="M37.9,83.3l2.3,13.6l2.7-14.4C41.3,82.7,39.7,83,37.9,83.3L37.9,83.3z"/>
			</g>
			<g>
				<path class="st1" d="M28,78.7h0.1c0.9-0.2,1.8-0.5,2.6-0.7h0.2c0.9-0.2,1.8-0.4,2.8-0.6h0.2c1-0.2,2-0.4,2.9-0.6
					c2.6-0.5,5.1-1,7.5-1.3h0.1l0.8-4.2c-2.9,0.4-6,0.9-9,1.5c-1,0.2-1.9,0.4-3,0.6H33c-0.9,0.2-1.8,0.4-2.7,0.6h-0.2
					c-1.8,0.4-3.6,0.9-5.4,1.3c-3.4,0.9-6.7,1.9-10.3,3.1l0,0c0.1,0.7,0.3,1.5,0.5,2.3c0,0.2,0.1,0.4,0.1,0.6c0.1,0.5,0.2,1,0.4,1.5
					c3.2-1.1,6.7-2.3,10.2-3.2C26.3,79.1,27.1,78.9,28,78.7z"/>
			</g>
			<g>
				<path class="st1" d="M34.2,78.7l-0.3,0.1c-2.7,0.6-5.5,1.3-8.2,2.1c-3.5,1-6.9,2.1-10.1,3.2l0,0c0.3,1.2,0.6,2.4,1,3.6
					c0,0,0.1,0,0.1-0.1c5.8-2.1,15.1-5,26.6-6.7l0,0l0.8-4.1c-2.3,0.3-4.8,0.8-7.2,1.3C35.9,78.3,35,78.5,34.2,78.7z"/>
			</g>
			<g>
				<path class="st1" d="M23.4,68.2l-8.1-44.8c0,0,0,0-0.1,0c0,0-5.2,22.3-2,47.8C16.4,70.2,19.8,69.1,23.4,68.2L23.4,68.2z"/>
			</g>
			<g>
				<path class="st1" d="M63.5,63l-2.7-13.6L58.1,63c0.9,0,1.8,0,2.7,0S62.6,63,63.5,63z"/>
			</g>
			<g>
				<path class="st1" d="M64.7,68.7c-0.1-0.6-0.8-3.6-0.9-4.2l0,0c-0.9,0-1.9,0-3,0c-1,0-2,0-3,0l0,0c-0.1,0.6-0.8,3.6-0.9,4.2
					c1.4,0,2.7-0.1,3.9-0.1C62,68.6,63.3,68.6,64.7,68.7z"/>
			</g>
			<g>
				<path class="st1" d="M56.9,68.8L56.9,68.8L56.9,68.8z"/>
			</g>
			<g>
				<path class="st1" d="M60.8,74.1c1.5,0,3.1,0,5,0.1L65,70.1h-0.1C63.3,70,62,70,60.8,70s-2.6,0-4.1,0.1h-0.1l-0.8,4.1l0,0
					C57.7,74.1,59.3,74.1,60.8,74.1z"/>
			</g>
			<g>
				<path class="st1" d="M66.9,79.8l-0.8-4.1H66c-2-0.1-3.7-0.1-5.2-0.1c-1.6,0-3.3,0-5.3,0.2l0,0l-0.8,4.1c2.2-0.1,4.2-0.2,6.1-0.2
					C62.7,79.6,64.7,79.7,66.9,79.8z"/>
			</g>
			<g>
				<g>
					<path class="st1" d="M67.2,81.3c-2.3-0.1-4.3-0.2-6.4-0.2c-2,0-4.1,0.1-6.4,0.2l0,0L44.8,129c4.7,3.3,10,6.1,16,8.5
						c6-2.4,11.3-5.2,16-8.5L67.2,81.3L67.2,81.3z M57.4,124.3c-1.7,0-6-1.7-6.3-8.3c-0.2-4.9,1.2-6.2,1.2-6.2l2.6,4.8
						c0,6.9,4.9,7,4.9,7C59.8,124.4,57.4,124.3,57.4,124.3z M61.3,126.2h-1.2v-7.1c-0.7-0.3-2.1-1-2.1-3.7c0-3.2-0.4-5.3-0.8-6.8
						c-0.4-1.5-3-3.1-3-3.1c2.6-2.9,4.8,1,4.7,0.5c-0.2-0.9,0.3-2.5,0.6-3.2c0.3-0.8,1.1-1.8,1.1-1.8s0.8,1,1.1,1.8s0.8,2.4,0.6,3.2
						c-0.1,0.5,2.2-3.4,4.7-0.5c0,0-2.5,1.6-3,3.1c-0.4,1.5-0.8,3.6-0.8,6.8c0,2.9-1.6,3.5-2.2,3.7v7.1H61.3z M70.5,116
						c-0.3,6.7-4.6,8.3-6.3,8.3c0,0-2.4,0.1-2.4-2.7c0,0,4.9-0.1,4.9-7l2.6-4.8C69.3,109.8,70.7,111.1,70.5,116z"/>
				</g>
			</g>
			<g>
				<path class="st1" d="M97,75.2c-1.8-0.5-3.6-0.9-5.3-1.3l-0.2-0.1c-0.8-0.2-1.6-0.4-2.5-0.5l-0.5-0.1c-1-0.2-2-0.4-2.8-0.6
					c-3.1-0.6-6.1-1.1-9.1-1.5h-0.1l0.8,4.3h0.1c2.4,0.3,4.8,0.8,7.3,1.3h0.1c3.8,0.8,7.6,1.7,11.4,2.8c3.4,1,6.7,2,9.9,3.2l0.2,0.1
					c0.3-1.5,0.7-2.9,0.9-4.4l-0.2-0.1C103.9,77.1,100.5,76.1,97,75.2z"/>
			</g>
			<g>
				<path class="st1" d="M96,80.8L96,80.8L96,80.8c-0.8-0.2-1.7-0.5-2.6-0.7h-0.1c-0.9-0.2-1.8-0.5-2.7-0.7c-2-0.5-3.9-0.9-5.9-1.3
					c-2.4-0.5-4.8-0.9-7.1-1.2h-0.1l0.9,4.1l0,0c1.7,0.2,3.4,0.5,5.4,0.9l0,0h0.1c0.3,0.1,0.6,0.1,0.9,0.2l0.8,0.1
					c0.2,0,0.3,0.1,0.5,0.1C87,82.5,88,82.7,89,83c0.3,0.1,0.5,0.1,0.8,0.2c1.1,0.2,2,0.5,2.8,0.7c0.1,0,0.2,0.1,0.3,0.1
					c0.7,0.2,1.4,0.4,2,0.5l0.5,0.1c3.3,0.9,6.5,2,9.4,3.1c0.1,0,0.2,0.1,0.2,0.1c0.4-1.2,0.7-2.5,1-3.7l-0.2-0.1
					C102.7,82.8,99.4,81.8,96,80.8z"/>
			</g>
			<g>
				<path class="st1" d="M78.7,82.5l2.7,14.4l2.3-13.6l0,0C82,83,80.4,82.7,78.7,82.5z"/>
			</g>
			<g>
				<path class="st1" d="M95.1,86l-5.8,31.8c7.4-8.6,12.3-18.5,15.4-28.6l0,0C101.6,88,98.4,87,95.1,86z"/>
			</g>
			<g>
				<path class="st1" d="M108.4,71.3c3.3-25.5-2-47.9-2-47.9l0,0l-8.1,44.8l0,0C101.8,69.2,105.2,70.2,108.4,71.3z"/>
			</g>
			<g>
				<g>
					<path class="st1" d="M86.8,65.6l7.8-46.2c-9.9-2.4-21.7-3.6-28.8-4.1l9.4,48.6l0,0C78.9,64.3,82.8,64.9,86.8,65.6z M74.2,35.1
						l1.7-1l-4.2-2.4l0.7-0.2l-1.6-3l3.4-0.1l-0.1-0.7l4.2,2.5v-4.9l0.6,0.5l1.7-2.9l1.7,2.9l0.6-0.5v4.9l4.2-2.5L87,28.4l3.4,0.1
						l-1.7,3l0.7,0.2l-4.2,2.4l1.7,1l-0.7,0.2l1.6,3l-3.4,0.1l0.1,0.7l-3.2-1.9v6.3h-0.7h-0.1h-0.7v-6.3l-3.2,1.9l0.1-0.7l-3.4-0.1
						l1.7-3L74.2,35.1z"/>
				</g>
			</g>
			<g>
				<path class="st1" d="M98,69.7c-0.8-0.2-1.6-0.4-2.5-0.6L95.2,69c-2.9-0.7-5.8-1.4-8.7-1.9c-3.8-0.7-7.5-1.3-11.1-1.7
					c0.1,0.6,0.6,3.7,0.7,4.3l0,0c3.1,0.4,6.3,0.9,9.5,1.5h0.1c0.9,0.2,1.8,0.4,2.8,0.6l0.5,0.1c1,0.2,1.8,0.4,2.6,0.6h0.1
					c0.8,0.2,1.6,0.4,2.6,0.6l0.7,0.2c0.6,0.2,1.3,0.3,1.9,0.5H97c0.1,0,0.1,0,0.2,0h0.1c3.5,0.9,6.9,1.9,10.1,3h0.1
					c0.2-1.4,0.4-2.7,0.6-4H108C104.9,71.6,101.5,70.6,98,69.7z"/>
			</g>
			<path class="st2" d="M15.5,83.9L15.5,83.9L15.5,83.9z"/>
			<path class="st2" d="M63.5,63c-0.9,0-1.8,0-2.8,0c-0.9,0-1.8,0-2.7,0l-0.3,1.4l0,0c0.9,0,2,0,3,0s2,0,3,0l0,0
				C63.8,64.5,63.5,63,63.5,63z"/>
			<path class="st2" d="M46.5,63.8c-3.7,0.4-7.6,1-11.6,1.8l0,0c-3.9,0.7-7.7,1.6-11.5,2.6l0,0c-3.5,0.9-6.9,2-10.2,3.1v0.1
				c0.1,0.4,0.1,0.8,0.2,1.2l0,0l0,0v0.1l0,0l0,0c3.2-1.1,6.7-2.1,10.2-3.1c3.8-1,7.6-1.9,11.5-2.6c3.8-0.7,7.5-1.3,11.1-1.7
				L46.5,63.8L46.5,63.8z"/>
			<path class="st2" d="M13.2,71.4L13.2,71.4l0.1,1.2l0,0C13.3,72.2,13.3,71.8,13.2,71.4z"/>
			<path class="st2" d="M98.3,68.3L98.3,68.3c-3.8-1-7.7-1.9-11.5-2.7l0,0c-3.9-0.8-7.8-1.4-11.6-1.8l0,0v0.1l0.2,1.2v0.1
				c3.6,0.4,7.3,1,11.1,1.7c2.9,0.6,5.8,1.2,8.7,1.9l0.3,0.1c0.9,0.2,1.7,0.4,2.5,0.6c3.5,0.9,6.9,2,10.1,3.1h0.1
				c0-0.2,0.1-0.4,0.1-0.6s0.1-0.5,0.1-0.7v-0.1C105.2,70.2,101.8,69.2,98.3,68.3z"/>
			<path class="st2" d="M43.2,80.9c-11.4,1.7-20.8,4.6-26.6,6.7c-0.1,0-0.1,0-0.1,0.1l0.4,1.4l0,0c2-0.8,5.4-1.9,9.6-3.1l0,0
				c3.7-1,7.5-1.9,11.3-2.7l0,0c1.8-0.3,3.4-0.6,5-0.9L43.2,80.9L43.2,80.9z"/>
			<path class="st2" d="M104.9,87.7c-3-1.1-6.1-2.1-9.4-3.1L95,84.5c-0.7-0.2-1.3-0.4-2-0.5c-0.1,0-0.2-0.1-0.3-0.1
				c-0.8-0.2-1.8-0.4-2.8-0.7C89.5,83.1,89.3,83,89,83c-1-0.2-2-0.4-2.9-0.6c-0.2,0-0.3-0.1-0.5-0.1l-0.8-0.1
				C84.6,82,84.3,82,84,81.9h-0.1l0,0c-2-0.4-3.7-0.7-5.4-0.9l0,0v0.1l0.2,1.2v0.1c1.6,0.2,3.3,0.5,5,0.9l0,0
				C87.5,84,91.3,84.9,95,86l0,0c3.3,0.9,6.5,2,9.6,3.1l0,0V89c0.1-0.4,0.2-0.8,0.3-1.1V87.7C105,87.7,105,87.7,104.9,87.7z"/>
			<path class="st2" d="M104.7,89l0.3-1.1l0,0C104.9,88.3,104.8,88.6,104.7,89L104.7,89z"/>
			<path class="st2" d="M66.9,79.8c-2.2-0.1-4.2-0.2-6.2-0.2c-1.9,0-3.8,0.1-6.1,0.2l-0.3,1.5l0,0c2.3-0.1,4.3-0.2,6.4-0.2
				c2,0,4.1,0.1,6.4,0.2l0,0L66.9,79.8z"/>
			<path class="st2" d="M66.9,79.9l0.2,1.2L66.9,79.9z"/>
			<path class="st2" d="M64.7,68.7c-1.4,0-2.7-0.1-3.9-0.1s-2.5,0-3.9,0.1c0,0.1-0.3,1.4-0.3,1.4h0.1c1.6-0.1,2.9-0.1,4.1-0.1
				c1.2,0,2.5,0,4.1,0.1H65C65,70.1,64.7,68.7,64.7,68.7z"/>
			<path class="st2" d="M45.4,69.6c-3,0.4-6.2,0.9-9.4,1.5l0,0h-0.1c-0.8,0.2-1.7,0.3-2.8,0.6c-0.2,0-0.4,0.1-0.6,0.1h-0.1
				c-0.8,0.2-1.5,0.3-2.2,0.5l-0.4,0.1c-1.7,0.4-3.5,0.8-5.2,1.3h-0.1c-3.5,0.9-7.1,2-10.3,3.1v0.1l0,0c0.1,0.4,0.1,0.8,0.2,1.2l0,0
				c0,0,0,0.1,0,0.2l0,0c3.6-1.2,7-2.2,10.3-3.1c1.8-0.5,3.6-0.9,5.4-1.3h0.2c0.9-0.2,1.8-0.4,2.7-0.6h0.2c1-0.2,2-0.4,3-0.6
				c3.1-0.6,6.1-1.1,9-1.5v-0.1l0,0l0.2-1.2l0,0L45.4,69.6L45.4,69.6z"/>
			<polygon class="st2" points="45.4,69.7 45.4,69.7 45.1,71 45.1,71 			"/>
			<path class="st2" d="M14,76.9c0.1,0.4,0.1,0.8,0.2,1.2l0,0C14.2,77.7,14.1,77.3,14,76.9L14,76.9z"/>
			<path class="st2" d="M14.3,78.1L14.3,78.1L14.3,78.1z"/>
			<path class="st2" d="M107.5,76.8c-3.2-1.1-6.6-2.1-10.1-3h-0.1c-0.1,0-0.1,0-0.2,0H97c-0.6-0.2-1.3-0.3-1.9-0.5L94.5,73
				c-1-0.2-1.8-0.4-2.6-0.6h-0.1c-0.8-0.2-1.6-0.4-2.6-0.6l-0.5-0.1c-1-0.2-1.9-0.4-2.8-0.6h-0.1c-3.2-0.6-6.4-1.1-9.5-1.5l0,0
				c0,0.1,0,0.1,0,0.1l0.2,1.2V71h0.1c3,0.4,6,0.9,9.1,1.5c0.9,0.2,1.8,0.4,2.8,0.6l0.5,0.1c0.8,0.2,1.7,0.4,2.5,0.5l0.2,0.1
				c1.8,0.4,3.6,0.9,5.3,1.3c3.5,0.9,6.9,1.9,10.2,3l0.2,0.1v-0.1C107.5,77.7,107.5,77.3,107.5,76.8L107.5,76.8L107.5,76.8z"/>
			<path class="st2" d="M107.4,78.1l0.2-1.2C107.5,77.3,107.4,77.7,107.4,78.1L107.4,78.1z"/>
			<path class="st2" d="M65.8,74.2c-1.9-0.1-3.5-0.1-5-0.1s-3.1,0-5,0.1l0,0v0.1l-0.2,1.2v0.1l0,0c2-0.1,3.7-0.2,5.3-0.2
				s3.2,0,5.2,0.1h0.1L65.8,74.2z"/>
			<path class="st2" d="M44.2,75.3c-2.4,0.3-4.9,0.8-7.5,1.3c-0.9,0.2-1.9,0.4-2.9,0.6h-0.2c-0.9,0.2-1.8,0.4-2.8,0.6h-0.2
				c-0.9,0.2-1.8,0.4-2.6,0.7h-0.1c-0.8,0.2-1.7,0.4-2.6,0.7c-3.5,1-7,2.1-10.2,3.2c0.1,0.4,0.2,0.8,0.3,1.2v0.1v0.1l0,0
				c3.2-1.2,6.6-2.2,10.1-3.2c2.7-0.8,5.5-1.5,8.2-2.1l0.3-0.1c0.8-0.2,1.7-0.4,2.6-0.6c2.4-0.5,4.9-0.9,7.2-1.3
				C44,76.8,44.3,75.3,44.2,75.3L44.2,75.3z"/>
			<path class="st2" d="M15.5,83.9L15.5,83.9L15.5,83.9z"/>
			<path class="st2" d="M15.5,83.8C15.5,83.9,15.5,83.9,15.5,83.8L15.5,83.8C15.5,83.9,15.5,83.9,15.5,83.8z"/>
			<path class="st2" d="M106.2,82.6c-3.2-1.1-6.5-2.2-9.9-3.2c-3.8-1.1-7.6-2-11.4-2.8h-0.1c-2.5-0.5-4.9-0.9-7.3-1.3h-0.1v0.1
				l0.2,1.2v0.1h0.1c2.3,0.3,4.7,0.8,7.1,1.2c2,0.4,4,0.8,5.9,1.3c0.9,0.2,1.8,0.5,2.7,0.7h0.1c0.9,0.2,1.8,0.5,2.6,0.7l0,0l0,0
				c3.3,0.9,6.7,2,9.8,3.1l0.2,0.1v-0.1c0.1-0.4,0.2-0.8,0.3-1.2v-0.1L106.2,82.6z"/>
			<path class="st2" d="M48.2,36c0,0,1.7-1.6,1.7-3.1c0-3.4-1.9-3.2-2.7-3.2c-1.9,0-4.4,2.9-4.4,2.9c0.3-0.6,0.8-1.8,0.9-2.1
				c0.1-0.1,0.1-0.3,0.2-0.5c0.3-0.7,0.6-1.8,0.1-3.2c-0.4-1.3-1.3-1.9-2.1-2.8c-0.8-1-1.1-1.3-1.1-1.3S40.5,23,39.7,24
				c-0.8,0.9-1.7,1.5-2.1,2.8c-0.5,1.4-0.2,2.5,0.1,3.2c0.1,0.2,0.2,0.4,0.2,0.5c0.1,0.4,0.6,1.5,0.9,2.1c0,0-2.5-2.9-4.4-2.9
				c-0.8,0-2.7-0.2-2.7,3.2c0,1.5,1.7,3.1,1.7,3.1s0.2-1.2,2.1-1.2c1.2,0,2.1,1.3,2.1,2.8c0,1.2-0.2,2.2-0.5,2.4
				c0,0,1.3,0.9,1.7,1.3c0.4,0.4,2.1,2.4,2.1,2.4s1.7-2,2.1-2.4c0.4-0.4,1.7-1.3,1.7-1.3c-0.3-0.1-0.5-1.1-0.5-2.4
				c0-1.5,0.9-2.8,2.1-2.8C47.9,34.8,48.2,36,48.2,36z"/>
			<path class="st2" d="M61.8,121.6c0,2.8,2.4,2.7,2.4,2.7c1.7,0,6-1.7,6.3-8.3c0.2-4.9-1.2-6.2-1.2-6.2l-2.6,4.8
				C66.7,121.5,61.8,121.6,61.8,121.6z"/>
			<path class="st2" d="M54.8,114.6l-2.6-4.8c0,0-1.4,1.3-1.2,6.2c0.3,6.7,4.6,8.3,6.3,8.3c0,0,2.4,0.1,2.4-2.7
				C59.8,121.6,54.8,121.5,54.8,114.6z"/>
			<path class="st2" d="M63.5,115.5c0-3.2,0.4-5.3,0.8-6.8s3-3.1,3-3.1c-2.6-2.9-4.8,1-4.7,0.5c0.2-0.9-0.3-2.5-0.6-3.2
				c-0.3-0.8-1.1-1.8-1.1-1.8s-0.8,1-1.1,1.8s-0.8,2.4-0.6,3.2c0.1,0.5-2.2-3.4-4.7-0.5c0,0,2.5,1.6,3,3.1c0.4,1.5,0.8,3.6,0.8,6.8
				c0,2.7,1.4,3.4,2.1,3.7v7.1h1.2v-7C61.9,119,63.5,118.3,63.5,115.5z"/>
			<polygon class="st2" points="76.7,38.3 76.6,39.1 79.8,37.2 79.8,43.5 80.5,43.5 80.6,43.5 81.3,43.5 81.3,37.2 84.6,39.1 
				84.4,38.3 87.8,38.3 86.2,35.3 86.9,35.1 85.2,34.1 89.3,31.7 88.7,31.4 90.3,28.5 86.9,28.4 87,27.7 82.8,30.1 82.8,25.2 
				82.2,25.7 80.6,22.8 78.9,25.7 78.3,25.2 78.3,30.1 74.1,27.7 74.2,28.4 70.8,28.5 72.5,31.4 71.8,31.7 75.9,34.1 74.2,35.1 
				74.9,35.3 73.3,38.3 			"/>
		</g>
	</g>
</g>
</svg>
