<?xml version="1.0" encoding="utf-8"?>
<!-- Generator: Adobe Illustrator 22.0.1, SVG Export Plug-In . SVG Version: 6.00 Build 0)  -->
<svg version="1.1" id="Layer_1" xmlns="http://www.w3.org/2000/svg" xmlns:xlink="http://www.w3.org/1999/xlink" x="0px" y="0px"
	 width="875px" height="1000px" viewBox="0 0 875 1000" enable-background="new 0 0 875 1000" xml:space="preserve">
<g>
	<path fill="#7289DA" d="M347.2154846,419.5360107c-28.3029785,0-51.2084961,24.7799988-51.2084961,55.338501
		c0,30.5780029,22.9055176,55.3535156,51.2084961,55.3535156c28.2630615,0,51.1690063-24.7755127,51.1690063-55.3535156
		C398.384491,444.3160095,375.4785461,419.5360107,347.2154846,419.5360107z"/>
	<path fill="#7289DA" d="M529.4649658,419.5360107c-28.2634888,0-51.1694641,24.7799988-51.1694641,55.338501
		c0,30.5780029,22.9059753,55.3535156,51.1694641,55.3535156c28.3024902,0,51.2080078-24.7755127,51.2080078-55.3535156
		C580.6729736,444.3160095,557.7674561,419.5360107,529.4649658,419.5360107z"/>
	<path fill="#7289DA" d="M772.661499,0h-670.322937C45.8115005,0,0,46.2019997,0,103.2105026v676.0349731
		c0,57.0085449,45.8115005,103.2105103,102.3385391,103.2105103h567.1838989l-26.5249634-92.3449707l63.881958,59.407959
		l60.302002,56.0574951L875,1000V779.2454834v-50.1914673V103.2105026C875,46.2019997,829.1879883,0,772.661499,0z
		 M579.598999,653.1359863c0,0-17.831543-21.6129761-32.7814941-40.5620117
		c65.6795044-18.4214478,90.4219971-59.5254517,90.4219971-59.5254517
		c-20.6690063,13.5449829-40.1365356,22.977478-57.6799927,29.6714478
		c-24.9470215,10.3635254-49.25,17.3380127-72.6830139,21.6675415
		c-47.8479614,8.8955078-91.9064941,6.7329712-129.6004944-0.2755127
		c-28.4250183-5.3049927-53.2060242-13.3485107-73.3965149-21.510498
		c-11.4719849-4.3934937-23.7844849-10.0574951-36.7369995-17.2144775
		c-1.6409912-0.8915405-3.1984863-1.7390137-4.6394958-2.5615234c-0.7569885-0.4235229-1.4750061-0.8074951-2.197998-1.2509766
		c-8.9179993-5.1224976-13.7924957-8.526001-13.7924957-8.526001S270.5419922,593,334.1405029,611.8104858
		c-15.0719604,19.1110229-33.371521,41.3255005-33.371521,41.3255005
		c-110.4604492-3.3889771-152.6779785-76.242981-152.6779785-76.242981c0-160.9234924,71.960495-291.3894958,71.960495-291.3894958
		c72.0384979-54.2055054,140.2770538-52.489502,140.2770538-52.489502l5.1574402,5.8834991
		c-90.2260132,25.881485-131.2805023,65.7144928-131.2805023,65.7144928s10.7545013-6.2260132,29.6945038-14.2890015
		c53.6940002-23.5859985,95.989502-29.9375,113.4935608-31.6294861c2.802948-0.4015198,5.5574341-0.8275146,8.3999939-1.1914978
		c30.7394409-3.8890076,64.8784485-4.9775085,101.1369324-0.9040222
		c47.4915161,5.3590088,98.6655273,19.5910034,150.6705322,48.0140076c0,0-39.2970581-37.6755066-124.6050415-63.5570068
		l6.9990234-8.0409851c0,0,68.2730103-1.7160034,140.2719727,52.489502c0,0,71.9995117,130.4660034,71.9995117,291.3894958
		C732.2664795,576.8930054,690.0539551,649.7470093,579.598999,653.1359863z"/>
</g>
</svg>
