<svg width="20" height="20" viewBox="0 0 20 20" fill="none" xmlns="http://www.w3.org/2000/svg">
<path d="M10 20C15.5228 20 20 15.5228 20 10C20 4.47715 15.5228 0 10 0C4.47715 0 0 4.47715 0 10C0 15.5228 4.47715 20 10 20Z" fill="white"/>
<path d="M10 20C15.5228 20 20 15.5228 20 10C20 4.47715 15.5228 0 10 0C4.47715 0 0 4.47715 0 10C0 15.5228 4.47715 20 10 20Z" fill="white"/>
<path d="M14.9127 9.06598H12.8226H10.1099V11.044H12.7836C12.5429 11.6863 12.0861 12.2229 11.5014 12.5657C11.0611 12.8243 10.5479 12.9723 10.0001 12.9723C8.7256 12.9723 7.63848 12.1701 7.21623 11.0432C7.09424 10.7187 7.02777 10.3671 7.02777 10C7.02777 9.66183 7.08435 9.33684 7.18822 9.0341C7.58931 7.86677 8.69676 7.02775 10.0001 7.02775C10.5773 7.02775 11.116 7.19231 11.5718 7.47722L13.1916 6.1511C12.3256 5.43215 11.2133 5 10.0001 5C8.06763 5 6.39124 6.09616 5.55906 7.70059C5.20163 8.38904 5 9.17091 5 10.0001C5 10.8575 5.21566 11.6644 5.5959 12.3696C6.44041 13.9358 8.09593 15.0001 10.0001 15.0001C11.1849 15.0001 12.2734 14.588 13.1303 13.8993C14.0114 13.191 14.6473 12.1902 14.8908 11.044C14.9625 10.7072 15.0001 10.358 15.0001 10.0001C15.0001 9.68082 14.9702 9.36845 14.9127 9.06598Z" fill="#FBBB00"/>
<path d="M13.13 13.899L13.1303 13.8993C12.2734 14.588 11.1849 15.0001 9.99998 15.0001C8.09585 15.0001 6.44033 13.9358 5.59583 12.3696L7.21617 11.0432C7.63843 12.1701 8.72552 12.9724 10 12.9724C10.5478 12.9724 11.061 12.8243 11.5014 12.5658L13.13 13.899Z" fill="#28B446"/>
<path d="M14.9126 9.06616C14.97 9.36864 15 9.681 15 10.0002C15 10.3582 14.9624 10.7074 14.8907 11.0442C14.6473 12.1904 14.0112 13.1912 13.1302 13.8995L13.1299 13.8992L11.5013 12.5659C12.0859 12.223 12.5428 11.6865 12.7835 11.0442H10.1098V9.06616H12.8225H14.9126Z" fill="#518EF8"/>
<path d="M13.1915 6.15112L11.5717 7.47724C11.1159 7.19233 10.5772 7.02777 9.99998 7.02777C8.69667 7.02777 7.58923 7.86679 7.18814 9.03412L5.55928 7.70059H5.55899C6.39116 6.09616 8.06753 5 9.99998 5C11.2132 5 12.3256 5.43215 13.1915 6.15112Z" fill="#FC3F1D"/>
</svg>
