<?xml version="1.0" standalone="no"?>
<!DOCTYPE svg PUBLIC "-//W3C//DTD SVG 20010904//EN"
 "http://www.w3.org/TR/2001/REC-SVG-20010904/DTD/svg10.dtd">
<svg version="1.0" xmlns="http://www.w3.org/2000/svg"
 width="350.000000pt" height="350.000000pt" viewBox="0 0 350.000000 350.000000"
 preserveAspectRatio="xMidYMid meet">

<g transform="translate(0.000000,350.000000) scale(0.100000,-0.100000)"
fill="#CD1010" stroke="none">
<path d="M1598 3406 c-42 -7 -82 -17 -90 -22 -15 -13 -83 -30 -148 -39 -25 -3
-67 -17 -95 -29 -27 -13 -70 -27 -94 -31 -33 -5 -58 -20 -101 -59 -133 -119
-185 -156 -225 -156 -24 0 -56 -25 -80 -62 -16 -26 -16 -31 -1 -68 15 -39 15
-43 -4 -85 -11 -24 -25 -47 -31 -50 -5 -4 -9 -21 -7 -38 3 -27 -2 -34 -27 -46
-16 -7 -39 -22 -51 -32 -11 -11 -23 -17 -26 -13 -9 8 9 64 27 84 8 9 15 31 15
48 0 26 -4 32 -20 32 -18 0 -19 -3 -10 -20 19 -35 3 -43 -66 -36 -63 6 -64 6
-104 -30 -22 -20 -40 -44 -40 -53 0 -18 -21 -79 -34 -99 -4 -7 -18 -17 -31
-22 -15 -6 -26 -20 -30 -42 -4 -18 -13 -42 -20 -53 -12 -20 -20 -63 -30 -164
-2 -24 -10 -51 -18 -60 -8 -9 -17 -38 -20 -64 -2 -26 -12 -56 -21 -66 -9 -10
-16 -35 -16 -57 0 -27 -9 -52 -27 -79 -18 -26 -29 -56 -31 -85 -1 -25 -5 -86
-8 -137 l-5 -92 35 -36 c33 -33 47 -65 28 -65 -26 0 -63 -117 -41 -131 14 -8
39 -81 39 -115 0 -12 13 -46 30 -77 17 -32 30 -72 30 -91 0 -29 7 -41 45 -71
57 -47 85 -92 78 -126 -4 -21 3 -36 31 -67 20 -22 36 -48 36 -58 0 -11 25 -42
55 -70 39 -36 55 -59 55 -76 0 -29 13 -42 50 -52 14 -4 42 -29 63 -56 44 -59
74 -65 105 -23 25 34 40 23 25 -17 -17 -44 19 -107 78 -138 24 -13 75 -46 113
-74 104 -75 135 -90 174 -79 29 9 37 6 68 -21 20 -17 72 -45 117 -61 45 -16
105 -37 132 -48 61 -22 106 -24 170 -5 42 13 50 13 72 -1 21 -14 49 -15 206
-10 161 6 185 9 209 27 15 11 41 20 57 20 16 0 33 4 36 10 3 5 25 10 48 10 26
1 51 8 65 20 l22 19 -2 533 c-1 293 -4 621 -6 729 l-3 196 -207 6 c-287 8
-374 33 -454 127 -111 129 -143 310 -136 770 3 163 9 285 15 300 16 38 63 80
88 80 26 0 72 -49 81 -87 4 -14 4 -55 0 -92 -3 -36 -12 -129 -20 -206 -7 -77
-11 -143 -7 -146 3 -4 60 -3 126 1 66 5 209 9 319 9 l199 1 -9 268 c-11 337
-11 529 0 564 7 23 5 29 -10 34 -11 3 -35 13 -54 21 -65 29 -135 40 -305 47
-61 2 -106 -1 -117 -7 -12 -8 -26 -8 -51 1 -18 7 -41 12 -50 12 -10 0 -25 9
-34 20 -19 22 -18 22 -125 6z m-1160 -1548 c-3 -8 -27 -14 -58 -16 -59 -3 -80
-15 -80 -43 0 -26 18 -33 82 -31 46 2 58 -1 58 -13 0 -12 -13 -15 -62 -15 -71
0 -98 17 -98 62 0 47 31 68 101 68 44 0 60 -3 57 -12z m-32 -184 c8 -44 -2
-55 -60 -61 -61 -7 -61 12 0 22 39 5 45 9 42 28 -3 20 -8 22 -50 20 -27 -2
-48 1 -48 6 0 14 20 19 67 20 41 1 42 0 49 -35z m64 -74 c0 -5 -7 -10 -15 -10
-8 0 -15 5 -15 10 0 6 7 10 15 10 8 0 15 -4 15 -10z m-46 -9 c4 -5 -7 -12 -24
-15 -16 -3 -44 -9 -61 -12 -24 -5 -30 -3 -27 7 7 20 102 37 112 20z m6 -40 c0
-5 -17 -20 -37 -33 l-38 -23 44 -5 c25 -3 46 -10 48 -17 3 -9 -10 -11 -49 -6
-83 9 -87 24 -20 68 41 26 52 30 52 16z m36 -136 c15 -23 15 -27 0 -50 -22
-34 -43 -32 -51 5 -8 36 -19 44 -35 26 -9 -12 -7 -19 9 -35 25 -25 26 -31 7
-31 -16 0 -31 17 -40 47 -17 54 78 87 110 38z m42 -110 c13 -28 -2 -45 -16
-18 -9 15 -15 15 -50 5 -47 -14 -52 -15 -52 -3 0 9 66 39 91 40 9 1 21 -10 27
-24z m32 -70 c10 -27 4 -55 -12 -55 -5 0 -8 8 -7 18 3 29 -1 42 -11 42 -5 0
-10 -18 -10 -39 0 -44 -10 -55 -41 -46 -23 8 -41 47 -32 70 8 23 27 12 28 -16
0 -32 20 -31 21 1 2 46 4 50 29 50 18 0 28 -7 35 -25z m70 -55 c0 -5 -4 -10
-10 -10 -5 0 -10 5 -10 10 0 6 5 10 10 10 6 0 10 -4 10 -10z m-40 -20 c0 -5
-22 -21 -50 -35 -35 -18 -50 -21 -50 -12 0 7 19 23 43 34 48 25 57 27 57 13z
m60 -30 c0 -5 -6 -10 -12 -13 -10 -3 -10 -9 -2 -23 9 -16 6 -25 -17 -55 l-29
-37 42 9 c24 6 45 6 50 1 5 -5 -25 -16 -72 -26 -65 -14 -84 -15 -96 -5 -11 9
-12 15 -3 23 8 8 13 8 16 -1 3 -7 10 -13 17 -13 17 0 79 87 71 100 -9 14 -77
-21 -71 -37 3 -7 -1 -13 -9 -13 -30 0 -16 40 20 57 19 9 35 22 35 28 0 7 14
12 30 13 17 0 30 -3 30 -8z m110 -220 c26 -26 25 -46 -5 -75 -28 -29 -51 -32
-77 -8 -24 22 -23 58 4 83 28 25 52 26 78 0z m111 -56 c11 -14 10 -16 -11 -12
-20 2 -24 -1 -22 -16 3 -14 -1 -17 -14 -12 -12 5 -28 -3 -51 -25 -43 -42 -57
-29 -15 14 18 18 32 38 32 44 0 11 19 20 51 22 9 0 23 -6 30 -15z m49 -54 c0
-6 -11 -33 -25 -60 -14 -28 -23 -50 -20 -50 3 0 27 16 53 35 64 46 81 33 46
-36 -13 -27 -24 -51 -24 -55 0 -3 22 11 49 30 27 20 52 32 55 27 8 -12 -121
-104 -133 -96 -6 3 1 30 15 60 13 31 24 58 24 61 0 3 -23 -11 -51 -31 -31 -22
-55 -33 -60 -28 -10 10 48 153 62 153 5 0 9 -5 9 -10z m164 -141 c-3 -5 -10
-7 -15 -3 -5 3 -7 10 -3 15 3 5 10 7 15 3 5 -3 7 -10 3 -15z m-24 -29 c0 -13
-53 -89 -62 -90 -15 0 -8 20 18 60 26 38 44 51 44 30z m54 -30 c7 0 21 -9 31
-20 17 -18 16 -21 -9 -65 -15 -25 -31 -45 -36 -45 -15 0 -12 9 11 47 22 35 20
63 -5 63 -8 0 -24 -16 -36 -35 -21 -34 -48 -49 -37 -21 14 35 61 100 65 88 2
-6 9 -12 16 -12z m141 -120 l-35 -69 -32 14 c-26 10 -34 20 -36 45 -6 53 52
92 85 59 8 -8 14 -5 23 10 6 12 15 19 20 16 6 -3 -6 -37 -25 -75z m99 -12 c5
-9 7 -21 2 -25 -4 -4 -12 0 -17 10 -11 18 -39 24 -39 7 0 -5 8 -14 19 -19 40
-22 32 -71 -12 -71 -24 0 -57 27 -57 47 0 20 18 16 30 -7 6 -11 17 -20 25 -20
21 0 19 10 -12 42 -22 23 -24 30 -13 43 17 20 59 16 74 -7z m104 -30 c22 -22
15 -76 -13 -94 -53 -35 -106 27 -71 81 18 27 63 34 84 13z m88 -18 c8 0 14 -7
14 -16 0 -10 -6 -14 -14 -11 -19 7 -32 -9 -41 -50 -3 -18 -11 -33 -16 -33 -12
0 -11 21 3 75 9 31 17 44 26 40 7 -3 20 -5 28 -5z"/>
<path d="M426 1398 c9 -31 12 -34 26 -20 8 8 8 15 -2 27 -19 22 -32 18 -24 -7z"/>
<path d="M677 892 c-33 -36 -9 -74 33 -52 23 13 30 30 18 53 -11 22 -31 22
-51 -1z"/>
<path d="M1160 506 c-14 -17 -10 -58 6 -63 18 -6 44 26 44 53 0 28 -30 33 -50
10z"/>
<path d="M1385 426 c-19 -13 -18 -67 1 -73 18 -6 44 26 44 52 0 28 -22 38 -45
21z"/>
<path d="M2506 3148 c-3 -38 -3 -211 1 -384 5 -254 9 -317 20 -321 8 -3 142
-2 298 2 l284 7 -9 23 c-5 12 -6 58 -3 102 5 74 3 85 -22 134 -52 104 -64 121
-128 187 -36 37 -75 79 -86 93 -11 15 -33 30 -48 34 -16 3 -40 18 -54 31 -14
14 -39 28 -55 33 -16 4 -31 16 -33 26 -5 28 -53 65 -108 84 l-50 17 -7 -68z"/>
<path d="M3246 2223 c-13 -183 -53 -308 -122 -378 -86 -89 -223 -135 -470
-157 l-131 -12 -7 -74 c-8 -99 -8 -987 1 -1086 l6 -77 133 4 c131 4 132 4 173
36 22 17 42 40 45 49 3 9 42 50 87 91 88 81 109 116 109 184 0 24 7 59 17 77
24 50 30 168 9 208 -9 18 -24 32 -35 32 -19 0 -51 -29 -51 -47 0 -14 -39 -63
-51 -63 -5 0 -9 18 -9 40 0 23 -7 52 -16 65 -21 32 -11 45 35 45 32 0 46 8 97
58 33 32 70 64 82 71 13 7 30 28 38 46 7 19 39 59 69 90 48 49 55 62 55 96 0
32 -4 41 -23 48 -20 8 -23 15 -22 68 1 57 3 61 48 105 l47 47 0 175 c0 223
-15 289 -79 344 -8 6 -18 12 -22 12 -3 0 -9 -44 -13 -97z"/>
<path d="M1991 2278 c-157 -4 -286 -9 -287 -11 -2 -1 1 -36 7 -77 18 -153 80
-269 161 -308 61 -28 173 -42 345 -42 l146 0 -6 107 c-4 58 -7 159 -7 225 l0
118 -37 -2 c-21 0 -166 -5 -322 -10z"/>
<path d="M2510 2068 l0 -221 113 6 c338 18 456 98 477 324 5 57 4 92 -2 101
-8 9 -80 12 -299 12 l-289 0 0 -222z"/>
</g>
</svg>
