<?xml version="1.0" ?><!DOCTYPE svg  PUBLIC '-//W3C//DTD SVG 1.1//EN'  'http://www.w3.org/Graphics/SVG/1.1/DTD/svg11.dtd'><svg enable-background="new 0 0 56.693 56.693" height="56.693px" id="Layer_1" version="1.1" viewBox="0 0 56.693 56.693" width="56.693px" xml:space="preserve" xmlns="http://www.w3.org/2000/svg" xmlns:xlink="http://www.w3.org/1999/xlink"><g><path d="M28.346,5.157C14.747,5.157,3.722,16.18,3.722,29.78c0,13.6,11.024,24.625,24.624,24.625   c13.602,0,24.625-11.025,24.625-24.625C52.971,16.18,41.947,5.157,28.346,5.157z M30.498,19.182   c-0.469-0.668-1.338-1.006-2.143-1.006h-0.268c-1.34,0.135-2.545,0.871-2.879,2.346c-0.066,0.334-0.268,0.668-0.67,0.736   l-3.748-0.469c-0.269-0.066-0.67-0.268-0.538-0.803c0.805-4.221,4.42-5.693,7.834-5.891h0.805c1.875,0,4.285,0.535,5.824,1.939   c1.875,1.74,1.674,4.086,1.674,6.627v6.027c0,1.809,0.738,2.611,1.473,3.549c0.203,0.334,0.27,0.738-0.066,1.006   c-0.734,0.67-2.141,1.875-2.945,2.545c-0.268,0.197-0.604,0.197-0.938,0.064c-1.271-1.07-1.473-1.539-2.209-2.543   c-1.273,1.338-2.344,2.074-3.617,2.479c-0.803,0.197-1.674,0.332-2.744,0.332c-3.215,0-5.76-2.006-5.76-5.959   c0-3.145,1.676-5.289,4.153-6.295c1.271-0.602,2.812-0.869,4.352-1.07c1.004-0.135,2.01-0.201,2.879-0.268v-0.533   C30.967,21.059,31.035,19.987,30.498,19.182z M40.639,40.28c-0.389,0.312-0.805,0.592-1.219,0.84l-0.018,0.012   c-3.164,1.988-7.242,3.207-10.848,3.285c-0.113,0.004-0.225,0.006-0.336,0.006c-5.668-0.002-9.882-3.102-13.727-6.439   c-0.188-0.15-0.32-0.377-0.318-0.625c-0.002-0.193,0.08-0.383,0.217-0.508c0.138-0.131,0.326-0.199,0.511-0.199   c0.146,0,0.289,0.039,0.433,0.117c4.098,2.273,8.159,4.578,13.133,4.578c0.115,0,0.232,0,0.348-0.004   c3.166-0.068,6.584-0.842,9.84-2.162v-0.004l0.301-0.119l0.23-0.096c0.156-0.068,0.322-0.143,0.484-0.207   c0.145-0.068,0.301-0.104,0.451-0.104c0.477,0.002,0.918,0.352,0.926,0.871C41.051,39.817,40.883,40.099,40.639,40.28z    M42.498,41.655c-0.158,0.123-0.34,0.207-0.555,0.209h-0.004c-0.145,0-0.316-0.049-0.447-0.174   c-0.135-0.127-0.199-0.314-0.195-0.471c0-0.107,0.021-0.205,0.057-0.295c0.146-0.387,0.367-0.969,0.551-1.553   c0.186-0.578,0.324-1.176,0.318-1.498c0.002-0.084-0.008-0.141-0.016-0.168c-0.006-0.002-0.014-0.006-0.025-0.012   c-0.035-0.018-0.098-0.037-0.182-0.055c-0.168-0.039-0.41-0.057-0.682-0.055c-0.385,0-0.828,0.035-1.246,0.076   c-0.486,0.074-0.902,0.113-1.186,0.172l-0.023,0.006l-0.027,0.002c-0.029,0.002-0.061,0.004-0.096,0.004   c-0.145,0-0.309-0.039-0.449-0.15c-0.143-0.115-0.227-0.307-0.223-0.477c0.01-0.309,0.18-0.51,0.383-0.66   c0.326-0.238,0.678-0.438,1.064-0.596v-0.018l0.33-0.107l0.01-0.002l0.586-0.197v0.039c0.578-0.127,1.156-0.176,1.68-0.176   c0.729,0.002,1.332,0.09,1.746,0.248c0.141,0.061,0.268,0.115,0.402,0.262l0.016,0.02l0.014,0.021   c0.133,0.199,0.201,0.438,0.213,0.758l0.004,0.188C44.494,38.196,43.98,40.321,42.498,41.655z"/><path d="M30.967,25.612c-1.004,0-2.008,0.064-2.879,0.266c-1.605,0.471-2.879,1.475-2.879,3.617c0,1.674,0.871,2.811,2.344,2.811   c0.201,0,0.402-0.066,0.535-0.066c0.871-0.201,1.676-0.805,2.143-1.74c0.805-1.34,0.736-2.547,0.736-4.084V25.612z"/></g></svg>