<?xml version="1.0" encoding="iso-8859-1"?>
<!-- Generator: Adobe Illustrator 18.0.0, SVG Export Plug-In . SVG Version: 6.00 Build 0)  -->
<!DOCTYPE svg PUBLIC "-//W3C//DTD SVG 1.1//EN" "http://www.w3.org/Graphics/SVG/1.1/DTD/svg11.dtd">
<svg version="1.1" id="Capa_1" xmlns="http://www.w3.org/2000/svg" xmlns:xlink="http://www.w3.org/1999/xlink" x="0px" y="0px"
	 viewBox="0 0 359.615 359.615" style="enable-background:new 0 0 359.615 359.615;" xml:space="preserve">
<g>
	<polygon style="fill:#F4CA60;" points="296.117,10.685 256.147,359.615 103.467,359.615 63.497,10.685 89.667,88.325 
		121.647,183.185 179.807,10.685 237.967,183.185 269.947,88.325 	"/>
	<polygon style="fill:#F4C647;" points="256.525,30.438 230.161,359.615 129.454,359.615 103.089,30.438 152.264,183.185 
		179.807,10.685 207.351,183.185 	"/>
	<polygon style="fill:#FCD983;" points="269.947,88.325 228.327,359.615 131.288,359.615 89.667,88.325 121.647,183.185 
		179.807,10.685 237.967,183.185 	"/>
	<circle style="fill:#EA535E;" cx="63.497" cy="17.638" r="17.638"/>
	<circle style="fill:#EA6C7C;" cx="103.089" cy="33.538" r="14.638"/>
	<circle style="fill:#EA6C7C;" cx="256.525" cy="33.538" r="14.638"/>
	<circle style="fill:#EA535E;" cx="296.118" cy="17.638" r="17.638"/>
	<g>
		<ellipse style="fill:#EA535E;" cx="106.645" cy="285.615" rx="6.319" ry="12.638"/>
		<ellipse style="fill:#EA535E;" cx="252.97" cy="285.615" rx="6.319" ry="12.638"/>
		<circle style="fill:#EA535E;" cx="140.067" cy="285.615" r="12.638"/>
		<circle style="fill:#EA535E;" cx="179.807" cy="285.615" r="12.638"/>
		<circle style="fill:#EA535E;" cx="219.548" cy="285.615" r="12.638"/>
	</g>
	<circle style="fill:#EA535E;" cx="179.807" cy="17.638" r="17.638"/>
	<path style="fill:#F4C647;" d="M262.25,342.615H97.365c-4.694,0-8.5,3.806-8.5,8.5v0c0,4.694,3.806,8.5,8.5,8.5H262.25
		c4.694,0,8.5-3.806,8.5-8.5v0C270.75,346.42,266.944,342.615,262.25,342.615z"/>
</g>
<g>
</g>
<g>
</g>
<g>
</g>
<g>
</g>
<g>
</g>
<g>
</g>
<g>
</g>
<g>
</g>
<g>
</g>
<g>
</g>
<g>
</g>
<g>
</g>
<g>
</g>
<g>
</g>
<g>
</g>
</svg>
