<svg id="svg" version="1.1" xmlns="http://www.w3.org/2000/svg" xmlns:xlink="http://www.w3.org/1999/xlink" width="400" height="400" viewBox="0, 0, 400,400"><g id="svgg"><path id="path0" d="M208.200 78.417 C 204.290 78.721,200.212 79.339,198.000 79.961 C 197.230 80.178,195.936 80.524,195.125 80.730 C 179.050 84.814,165.466 100.464,162.426 118.400 C 162.147 120.050,161.739 121.940,161.521 122.600 C 161.294 123.286,161.030 131.979,160.905 142.894 L 160.687 161.989 148.043 162.094 L 135.400 162.200 135.297 184.894 L 135.193 207.589 147.897 207.694 L 160.600 207.800 160.800 273.000 L 161.000 338.200 186.800 338.310 C 200.990 338.371,213.004 338.323,213.499 338.203 L 214.398 337.985 214.499 272.893 L 214.600 207.800 232.249 207.696 L 249.898 207.592 250.349 203.796 C 250.984 198.454,251.534 193.290,251.990 188.400 C 252.205 186.090,252.835 179.907,253.390 174.659 C 253.946 169.411,254.400 164.416,254.400 163.559 L 254.400 162.000 234.371 162.000 L 214.342 162.000 214.478 146.300 L 214.614 130.600 215.641 128.399 C 216.206 127.189,217.334 125.614,218.149 124.898 C 221.168 122.248,220.979 122.275,238.600 122.026 L 254.600 121.800 254.600 100.000 L 254.600 78.200 233.200 78.168 C 221.430 78.151,210.180 78.263,208.200 78.417 " stroke="none" fill="#fafbfb" fill-rule="evenodd"></path><path id="path1" d="M178.700 0.273 C 176.555 0.359,174.800 0.602,174.800 0.814 C 174.800 1.027,173.551 1.200,172.024 1.200 C 170.497 1.200,169.136 1.380,169.000 1.600 C 168.864 1.820,167.773 2.000,166.576 2.000 C 165.379 2.000,164.400 2.180,164.400 2.400 C 164.400 2.620,163.410 2.800,162.200 2.800 C 160.990 2.800,160.000 2.980,160.000 3.200 C 160.000 3.420,159.280 3.600,158.400 3.600 C 157.520 3.600,156.800 3.780,156.800 4.000 C 156.800 4.220,156.001 4.400,155.024 4.400 C 154.047 4.400,153.136 4.580,153.000 4.800 C 152.864 5.020,152.043 5.200,151.176 5.200 C 150.309 5.200,149.600 5.380,149.600 5.600 C 149.600 5.820,148.970 6.000,148.200 6.000 C 147.430 6.000,146.800 6.180,146.800 6.400 C 146.800 6.620,146.170 6.800,145.400 6.800 C 144.630 6.800,144.000 6.980,144.000 7.200 C 144.000 7.420,143.370 7.600,142.600 7.600 C 141.830 7.600,141.200 7.780,141.200 8.000 C 141.200 8.220,140.690 8.400,140.067 8.400 C 139.443 8.400,138.810 8.524,138.659 8.675 C 138.507 8.826,138.072 8.982,137.692 9.021 C 137.022 9.091,131.426 10.893,129.800 11.563 C 127.414 12.547,126.533 12.927,125.905 13.247 C 125.523 13.441,124.938 13.600,124.605 13.600 C 124.272 13.600,124.000 13.780,124.000 14.000 C 124.000 14.220,123.561 14.400,123.024 14.400 C 122.487 14.400,121.936 14.580,121.800 14.800 C 121.664 15.020,121.203 15.200,120.776 15.200 C 120.349 15.200,120.000 15.380,120.000 15.600 C 120.000 15.820,119.640 16.000,119.200 16.000 C 118.760 16.000,118.400 16.180,118.400 16.400 C 118.400 16.620,118.040 16.800,117.600 16.800 C 117.160 16.800,116.800 16.980,116.800 17.200 C 116.800 17.420,116.350 17.600,115.800 17.600 C 115.250 17.600,114.800 17.780,114.800 18.000 C 114.800 18.220,114.547 18.400,114.238 18.400 C 113.572 18.400,110.259 20.068,110.067 20.500 C 109.993 20.665,109.588 20.800,109.167 20.800 C 108.745 20.800,108.400 20.980,108.400 21.200 C 108.400 21.420,108.040 21.600,107.600 21.600 C 107.160 21.600,106.800 21.780,106.800 22.000 C 106.800 22.220,106.440 22.400,106.000 22.400 C 105.560 22.400,105.200 22.580,105.200 22.800 C 105.200 23.020,104.964 23.200,104.675 23.200 C 104.387 23.200,103.764 23.560,103.292 24.000 C 102.820 24.440,102.252 24.800,102.030 24.800 C 101.358 24.800,98.800 26.126,98.800 26.474 C 98.800 26.653,98.440 26.800,98.000 26.800 C 97.560 26.800,97.200 26.980,97.200 27.200 C 97.200 27.420,97.007 27.600,96.772 27.600 C 96.537 27.600,95.559 28.140,94.600 28.800 C 93.641 29.460,92.703 30.000,92.516 30.000 C 92.329 30.000,91.917 30.360,91.600 30.800 C 91.283 31.240,90.743 31.600,90.400 31.600 C 90.057 31.600,89.517 31.960,89.200 32.400 C 88.883 32.840,88.343 33.200,88.000 33.200 C 87.657 33.200,87.117 33.560,86.800 34.000 C 86.483 34.440,85.991 34.800,85.708 34.800 C 85.425 34.800,84.628 35.340,83.937 36.000 C 83.246 36.660,82.478 37.200,82.229 37.200 C 81.980 37.200,81.517 37.560,81.200 38.000 C 80.883 38.440,80.393 38.800,80.112 38.800 C 79.831 38.800,78.859 39.520,77.952 40.400 C 77.045 41.280,76.164 42.000,75.994 42.000 C 75.824 42.000,75.107 42.540,74.400 43.200 C 73.693 43.860,72.958 44.400,72.766 44.400 C 72.574 44.400,71.427 45.390,70.217 46.600 C 69.007 47.810,67.847 48.800,67.639 48.800 C 67.431 48.800,65.348 50.690,63.009 53.000 C 60.671 55.310,58.864 57.200,58.993 57.200 C 59.122 57.200,58.817 57.626,58.314 58.146 C 57.811 58.667,57.335 59.037,57.256 58.970 C 57.031 58.776,48.800 67.215,48.800 67.639 C 48.800 67.847,47.810 69.007,46.600 70.217 C 45.390 71.427,44.400 72.574,44.400 72.766 C 44.400 72.958,43.860 73.693,43.200 74.400 C 42.540 75.107,42.000 75.824,42.000 75.994 C 42.000 76.164,41.280 77.045,40.400 77.952 C 39.520 78.859,38.800 79.831,38.800 80.112 C 38.800 80.393,38.440 80.883,38.000 81.200 C 37.560 81.517,37.200 81.980,37.200 82.229 C 37.200 82.478,36.660 83.246,36.000 83.937 C 35.340 84.628,34.800 85.425,34.800 85.708 C 34.800 85.991,34.440 86.483,34.000 86.800 C 33.560 87.117,33.200 87.657,33.200 88.000 C 33.200 88.343,32.840 88.883,32.400 89.200 C 31.960 89.517,31.600 90.057,31.600 90.400 C 31.600 90.743,31.240 91.283,30.800 91.600 C 30.360 91.917,30.000 92.329,30.000 92.516 C 30.000 92.703,29.460 93.641,28.800 94.600 C 28.140 95.559,27.600 96.537,27.600 96.772 C 27.600 97.007,27.420 97.200,27.200 97.200 C 26.980 97.200,26.800 97.560,26.800 98.000 C 26.800 98.440,26.653 98.800,26.474 98.800 C 26.126 98.800,24.800 101.358,24.800 102.030 C 24.800 102.252,24.440 102.820,24.000 103.292 C 23.560 103.764,23.200 104.387,23.200 104.675 C 23.200 104.964,23.020 105.200,22.800 105.200 C 22.580 105.200,22.400 105.560,22.400 106.000 C 22.400 106.440,22.220 106.800,22.000 106.800 C 21.780 106.800,21.600 107.160,21.600 107.600 C 21.600 108.040,21.420 108.400,21.200 108.400 C 20.980 108.400,20.800 108.745,20.800 109.167 C 20.800 109.588,20.665 109.993,20.500 110.067 C 20.068 110.259,18.400 113.572,18.400 114.238 C 18.400 114.547,18.220 114.800,18.000 114.800 C 17.780 114.800,17.600 115.250,17.600 115.800 C 17.600 116.350,17.420 116.800,17.200 116.800 C 16.980 116.800,16.800 117.160,16.800 117.600 C 16.800 118.040,16.620 118.400,16.400 118.400 C 16.180 118.400,16.000 118.760,16.000 119.200 C 16.000 119.640,15.820 120.000,15.600 120.000 C 15.380 120.000,15.200 120.349,15.200 120.776 C 15.200 121.203,15.020 121.664,14.800 121.800 C 14.580 121.936,14.400 122.487,14.400 123.024 C 14.400 123.561,14.220 124.000,14.000 124.000 C 13.780 124.000,13.600 124.272,13.600 124.605 C 13.600 124.938,13.441 125.523,13.247 125.905 C 13.052 126.287,12.716 127.050,12.500 127.600 C 12.284 128.150,11.911 129.050,11.670 129.600 C 10.985 131.170,9.101 136.925,9.021 137.692 C 8.982 138.072,8.826 138.507,8.675 138.659 C 8.524 138.810,8.400 139.443,8.400 140.067 C 8.400 140.690,8.220 141.200,8.000 141.200 C 7.780 141.200,7.600 141.830,7.600 142.600 C 7.600 143.370,7.420 144.000,7.200 144.000 C 6.980 144.000,6.800 144.630,6.800 145.400 C 6.800 146.170,6.620 146.800,6.400 146.800 C 6.180 146.800,6.000 147.430,6.000 148.200 C 6.000 148.970,5.820 149.600,5.600 149.600 C 5.380 149.600,5.200 150.309,5.200 151.176 C 5.200 152.043,5.020 152.864,4.800 153.000 C 4.580 153.136,4.400 154.047,4.400 155.024 C 4.400 156.001,4.220 156.800,4.000 156.800 C 3.780 156.800,3.600 157.520,3.600 158.400 C 3.600 159.280,3.420 160.000,3.200 160.000 C 2.980 160.000,2.800 160.990,2.800 162.200 C 2.800 163.410,2.620 164.400,2.400 164.400 C 2.180 164.400,2.000 165.379,2.000 166.576 C 2.000 167.773,1.820 168.864,1.600 169.000 C 1.380 169.136,1.200 170.482,1.200 171.990 C 1.200 173.829,1.035 174.788,0.700 174.900 C -0.032 175.144,-0.032 224.856,0.700 225.100 C 1.035 225.212,1.200 226.171,1.200 228.010 C 1.200 229.518,1.380 230.864,1.600 231.000 C 1.820 231.136,2.000 232.227,2.000 233.424 C 2.000 234.621,2.180 235.600,2.400 235.600 C 2.620 235.600,2.800 236.590,2.800 237.800 C 2.800 239.010,2.980 240.000,3.200 240.000 C 3.420 240.000,3.600 240.720,3.600 241.600 C 3.600 242.480,3.780 243.200,4.000 243.200 C 4.220 243.200,4.400 243.999,4.400 244.976 C 4.400 245.953,4.580 246.864,4.800 247.000 C 5.020 247.136,5.200 247.957,5.200 248.824 C 5.200 249.691,5.380 250.400,5.600 250.400 C 5.820 250.400,6.000 251.030,6.000 251.800 C 6.000 252.570,6.180 253.200,6.400 253.200 C 6.620 253.200,6.800 253.830,6.800 254.600 C 6.800 255.370,6.980 256.000,7.200 256.000 C 7.420 256.000,7.600 256.630,7.600 257.400 C 7.600 258.170,7.780 258.800,8.000 258.800 C 8.220 258.800,8.400 259.310,8.400 259.933 C 8.400 260.557,8.524 261.190,8.675 261.341 C 8.826 261.493,8.982 261.928,9.021 262.308 C 9.091 262.978,10.893 268.574,11.563 270.200 C 12.547 272.586,12.927 273.467,13.247 274.095 C 13.441 274.477,13.600 275.062,13.600 275.395 C 13.600 275.728,13.780 276.000,14.000 276.000 C 14.220 276.000,14.400 276.439,14.400 276.976 C 14.400 277.513,14.580 278.064,14.800 278.200 C 15.020 278.336,15.200 278.797,15.200 279.224 C 15.200 279.651,15.380 280.000,15.600 280.000 C 15.820 280.000,16.000 280.360,16.000 280.800 C 16.000 281.240,16.180 281.600,16.400 281.600 C 16.620 281.600,16.800 281.960,16.800 282.400 C 16.800 282.840,16.980 283.200,17.200 283.200 C 17.420 283.200,17.600 283.650,17.600 284.200 C 17.600 284.750,17.780 285.200,18.000 285.200 C 18.220 285.200,18.400 285.453,18.400 285.762 C 18.400 286.428,20.068 289.741,20.500 289.933 C 20.665 290.007,20.800 290.412,20.800 290.833 C 20.800 291.255,20.980 291.600,21.200 291.600 C 21.420 291.600,21.600 291.960,21.600 292.400 C 21.600 292.840,21.780 293.200,22.000 293.200 C 22.220 293.200,22.400 293.560,22.400 294.000 C 22.400 294.440,22.580 294.800,22.800 294.800 C 23.020 294.800,23.200 295.036,23.200 295.325 C 23.200 295.613,23.560 296.236,24.000 296.708 C 24.440 297.180,24.800 297.748,24.800 297.970 C 24.800 298.642,26.126 301.200,26.474 301.200 C 26.653 301.200,26.800 301.560,26.800 302.000 C 26.800 302.440,26.980 302.800,27.200 302.800 C 27.420 302.800,27.600 302.993,27.600 303.228 C 27.600 303.463,28.140 304.441,28.800 305.400 C 29.460 306.359,30.000 307.297,30.000 307.484 C 30.000 307.671,30.360 308.083,30.800 308.400 C 31.240 308.717,31.600 309.257,31.600 309.600 C 31.600 309.943,31.960 310.483,32.400 310.800 C 32.840 311.117,33.200 311.657,33.200 312.000 C 33.200 312.343,33.560 312.883,34.000 313.200 C 34.440 313.517,34.800 314.009,34.800 314.292 C 34.800 314.575,35.340 315.372,36.000 316.063 C 36.660 316.754,37.200 317.522,37.200 317.771 C 37.200 318.020,37.560 318.483,38.000 318.800 C 38.440 319.117,38.800 319.607,38.800 319.888 C 38.800 320.169,39.520 321.141,40.400 322.048 C 41.280 322.955,42.000 323.836,42.000 324.006 C 42.000 324.176,42.540 324.893,43.200 325.600 C 43.860 326.307,44.400 327.042,44.400 327.234 C 44.400 327.426,45.390 328.573,46.600 329.783 C 47.810 330.993,48.800 332.157,48.800 332.371 C 48.800 332.780,56.842 340.903,58.432 342.100 C 58.944 342.485,59.227 342.800,59.060 342.800 C 58.894 342.800,60.671 344.690,63.009 347.000 C 65.348 349.310,67.431 351.200,67.639 351.200 C 67.847 351.200,69.007 352.190,70.217 353.400 C 71.427 354.610,72.571 355.600,72.758 355.600 C 72.946 355.600,73.787 356.230,74.628 357.000 C 75.469 357.770,76.295 358.400,76.465 358.400 C 76.635 358.400,77.403 359.030,78.173 359.800 C 78.943 360.570,79.810 361.200,80.098 361.200 C 80.387 361.200,80.883 361.560,81.200 362.000 C 81.517 362.440,81.980 362.800,82.229 362.800 C 82.478 362.800,83.246 363.340,83.937 364.000 C 84.628 364.660,85.425 365.200,85.708 365.200 C 85.991 365.200,86.483 365.560,86.800 366.000 C 87.117 366.440,87.657 366.800,88.000 366.800 C 88.343 366.800,88.883 367.160,89.200 367.600 C 89.517 368.040,90.057 368.400,90.400 368.400 C 90.743 368.400,91.283 368.760,91.600 369.200 C 91.917 369.640,92.329 370.000,92.516 370.000 C 92.703 370.000,93.641 370.540,94.600 371.200 C 95.559 371.860,96.537 372.400,96.772 372.400 C 97.007 372.400,97.200 372.580,97.200 372.800 C 97.200 373.020,97.560 373.200,98.000 373.200 C 98.440 373.200,98.800 373.347,98.800 373.526 C 98.800 373.874,101.358 375.200,102.030 375.200 C 102.252 375.200,102.820 375.560,103.292 376.000 C 103.764 376.440,104.387 376.800,104.675 376.800 C 104.964 376.800,105.200 376.980,105.200 377.200 C 105.200 377.420,105.560 377.600,106.000 377.600 C 106.440 377.600,106.800 377.780,106.800 378.000 C 106.800 378.220,107.160 378.400,107.600 378.400 C 108.040 378.400,108.400 378.580,108.400 378.800 C 108.400 379.020,108.745 379.200,109.167 379.200 C 109.588 379.200,109.993 379.335,110.067 379.500 C 110.259 379.932,113.572 381.600,114.238 381.600 C 114.547 381.600,114.800 381.780,114.800 382.000 C 114.800 382.220,115.250 382.400,115.800 382.400 C 116.350 382.400,116.800 382.580,116.800 382.800 C 116.800 383.020,117.160 383.200,117.600 383.200 C 118.040 383.200,118.400 383.380,118.400 383.600 C 118.400 383.820,118.760 384.000,119.200 384.000 C 119.640 384.000,120.000 384.180,120.000 384.400 C 120.000 384.620,120.349 384.800,120.776 384.800 C 121.203 384.800,121.664 384.980,121.800 385.200 C 121.936 385.420,122.487 385.600,123.024 385.600 C 123.561 385.600,124.000 385.780,124.000 386.000 C 124.000 386.220,124.272 386.400,124.605 386.400 C 124.938 386.400,125.523 386.559,125.905 386.753 C 126.531 387.072,127.245 387.380,129.800 388.438 C 132.162 389.416,139.350 391.600,140.206 391.600 C 140.753 391.600,141.200 391.780,141.200 392.000 C 141.200 392.220,141.830 392.400,142.600 392.400 C 143.370 392.400,144.000 392.580,144.000 392.800 C 144.000 393.020,144.630 393.200,145.400 393.200 C 146.170 393.200,146.800 393.380,146.800 393.600 C 146.800 393.820,147.430 394.000,148.200 394.000 C 148.970 394.000,149.600 394.180,149.600 394.400 C 149.600 394.620,150.309 394.800,151.176 394.800 C 152.043 394.800,152.864 394.980,153.000 395.200 C 153.136 395.420,154.047 395.600,155.024 395.600 C 156.001 395.600,156.800 395.780,156.800 396.000 C 156.800 396.220,157.520 396.400,158.400 396.400 C 159.280 396.400,160.000 396.580,160.000 396.800 C 160.000 397.020,160.990 397.200,162.200 397.200 C 163.410 397.200,164.400 397.380,164.400 397.600 C 164.400 397.820,165.379 398.000,166.576 398.000 C 167.773 398.000,168.864 398.180,169.000 398.400 C 169.136 398.620,170.482 398.800,171.990 398.800 C 173.829 398.800,174.788 398.965,174.900 399.300 C 175.144 400.032,224.856 400.032,225.100 399.300 C 225.212 398.965,226.171 398.800,228.010 398.800 C 229.518 398.800,230.864 398.620,231.000 398.400 C 231.136 398.180,232.227 398.000,233.424 398.000 C 234.621 398.000,235.600 397.820,235.600 397.600 C 235.600 397.380,236.590 397.200,237.800 397.200 C 239.010 397.200,240.000 397.020,240.000 396.800 C 240.000 396.580,240.720 396.400,241.600 396.400 C 242.480 396.400,243.200 396.220,243.200 396.000 C 243.200 395.780,243.999 395.600,244.976 395.600 C 245.953 395.600,246.864 395.420,247.000 395.200 C 247.136 394.980,247.957 394.800,248.824 394.800 C 249.691 394.800,250.400 394.620,250.400 394.400 C 250.400 394.180,251.030 394.000,251.800 394.000 C 252.570 394.000,253.200 393.820,253.200 393.600 C 253.200 393.380,253.830 393.200,254.600 393.200 C 255.370 393.200,256.000 393.020,256.000 392.800 C 256.000 392.580,256.630 392.400,257.400 392.400 C 258.170 392.400,258.800 392.220,258.800 392.000 C 258.800 391.780,259.247 391.600,259.794 391.600 C 260.688 391.600,268.047 389.348,270.300 388.385 C 270.795 388.173,271.695 387.799,272.300 387.553 C 272.905 387.308,273.713 386.948,274.095 386.753 C 274.477 386.559,275.062 386.400,275.395 386.400 C 275.728 386.400,276.000 386.220,276.000 386.000 C 276.000 385.780,276.439 385.600,276.976 385.600 C 277.513 385.600,278.064 385.420,278.200 385.200 C 278.336 384.980,278.797 384.800,279.224 384.800 C 279.651 384.800,280.000 384.620,280.000 384.400 C 280.000 384.180,280.360 384.000,280.800 384.000 C 281.240 384.000,281.600 383.820,281.600 383.600 C 281.600 383.380,281.960 383.200,282.400 383.200 C 282.840 383.200,283.200 383.020,283.200 382.800 C 283.200 382.580,283.650 382.400,284.200 382.400 C 284.750 382.400,285.200 382.220,285.200 382.000 C 285.200 381.780,285.453 381.600,285.762 381.600 C 286.428 381.600,289.741 379.932,289.933 379.500 C 290.007 379.335,290.412 379.200,290.833 379.200 C 291.255 379.200,291.600 379.020,291.600 378.800 C 291.600 378.580,291.960 378.400,292.400 378.400 C 292.840 378.400,293.200 378.220,293.200 378.000 C 293.200 377.780,293.560 377.600,294.000 377.600 C 294.440 377.600,294.800 377.420,294.800 377.200 C 294.800 376.980,295.036 376.800,295.325 376.800 C 295.613 376.800,296.236 376.440,296.708 376.000 C 297.180 375.560,297.748 375.200,297.970 375.200 C 298.642 375.200,301.200 373.874,301.200 373.526 C 301.200 373.347,301.560 373.200,302.000 373.200 C 302.440 373.200,302.800 373.020,302.800 372.800 C 302.800 372.580,302.993 372.400,303.228 372.400 C 303.463 372.400,304.441 371.860,305.400 371.200 C 306.359 370.540,307.297 370.000,307.484 370.000 C 307.671 370.000,308.083 369.640,308.400 369.200 C 308.717 368.760,309.257 368.400,309.600 368.400 C 309.943 368.400,310.483 368.040,310.800 367.600 C 311.117 367.160,311.657 366.800,312.000 366.800 C 312.343 366.800,312.883 366.440,313.200 366.000 C 313.517 365.560,314.009 365.200,314.292 365.200 C 314.575 365.200,315.372 364.660,316.063 364.000 C 316.754 363.340,317.522 362.800,317.771 362.800 C 318.020 362.800,318.483 362.440,318.800 362.000 C 319.117 361.560,319.613 361.200,319.902 361.200 C 320.190 361.200,321.057 360.570,321.827 359.800 C 322.597 359.030,323.365 358.400,323.535 358.400 C 323.705 358.400,324.531 357.770,325.372 357.000 C 326.213 356.230,327.054 355.600,327.242 355.600 C 327.429 355.600,328.573 354.610,329.783 353.400 C 330.993 352.190,332.157 351.200,332.371 351.200 C 332.584 351.200,334.703 349.230,337.079 346.821 C 342.316 341.514,341.514 342.316,346.821 337.079 C 349.230 334.703,351.200 332.584,351.200 332.371 C 351.200 332.157,352.190 330.993,353.400 329.783 C 354.610 328.573,355.600 327.429,355.600 327.242 C 355.600 327.054,356.230 326.213,357.000 325.372 C 357.770 324.531,358.400 323.705,358.400 323.535 C 358.400 323.365,359.030 322.597,359.800 321.827 C 360.570 321.057,361.200 320.190,361.200 319.902 C 361.200 319.613,361.560 319.117,362.000 318.800 C 362.440 318.483,362.800 318.020,362.800 317.771 C 362.800 317.522,363.340 316.754,364.000 316.063 C 364.660 315.372,365.200 314.575,365.200 314.292 C 365.200 314.009,365.560 313.517,366.000 313.200 C 366.440 312.883,366.800 312.343,366.800 312.000 C 366.800 311.657,367.160 311.117,367.600 310.800 C 368.040 310.483,368.400 309.943,368.400 309.600 C 368.400 309.257,368.760 308.717,369.200 308.400 C 369.640 308.083,370.000 307.671,370.000 307.484 C 370.000 307.297,370.540 306.359,371.200 305.400 C 371.860 304.441,372.400 303.463,372.400 303.228 C 372.400 302.993,372.580 302.800,372.800 302.800 C 373.020 302.800,373.200 302.440,373.200 302.000 C 373.200 301.560,373.347 301.200,373.526 301.200 C 373.874 301.200,375.200 298.642,375.200 297.970 C 375.200 297.748,375.560 297.180,376.000 296.708 C 376.440 296.236,376.800 295.613,376.800 295.325 C 376.800 295.036,376.980 294.800,377.200 294.800 C 377.420 294.800,377.600 294.440,377.600 294.000 C 377.600 293.560,377.780 293.200,378.000 293.200 C 378.220 293.200,378.400 292.840,378.400 292.400 C 378.400 291.960,378.580 291.600,378.800 291.600 C 379.020 291.600,379.200 291.255,379.200 290.833 C 379.200 290.412,379.335 290.007,379.500 289.933 C 379.932 289.741,381.600 286.428,381.600 285.762 C 381.600 285.453,381.780 285.200,382.000 285.200 C 382.220 285.200,382.400 284.750,382.400 284.200 C 382.400 283.650,382.580 283.200,382.800 283.200 C 383.020 283.200,383.200 282.840,383.200 282.400 C 383.200 281.960,383.380 281.600,383.600 281.600 C 383.820 281.600,384.000 281.240,384.000 280.800 C 384.000 280.360,384.180 280.000,384.400 280.000 C 384.620 280.000,384.800 279.651,384.800 279.224 C 384.800 278.797,384.980 278.336,385.200 278.200 C 385.420 278.064,385.600 277.513,385.600 276.976 C 385.600 276.439,385.780 276.000,386.000 276.000 C 386.220 276.000,386.400 275.728,386.400 275.395 C 386.400 275.062,386.559 274.477,386.753 274.095 C 386.948 273.713,387.308 272.905,387.553 272.300 C 387.799 271.695,388.173 270.795,388.385 270.300 C 389.348 268.047,391.600 260.688,391.600 259.794 C 391.600 259.247,391.780 258.800,392.000 258.800 C 392.220 258.800,392.400 258.170,392.400 257.400 C 392.400 256.630,392.580 256.000,392.800 256.000 C 393.020 256.000,393.200 255.370,393.200 254.600 C 393.200 253.830,393.380 253.200,393.600 253.200 C 393.820 253.200,394.000 252.570,394.000 251.800 C 394.000 251.030,394.180 250.400,394.400 250.400 C 394.620 250.400,394.800 249.691,394.800 248.824 C 394.800 247.957,394.980 247.136,395.200 247.000 C 395.420 246.864,395.600 245.953,395.600 244.976 C 395.600 243.999,395.780 243.200,396.000 243.200 C 396.220 243.200,396.400 242.480,396.400 241.600 C 396.400 240.720,396.580 240.000,396.800 240.000 C 397.020 240.000,397.200 239.010,397.200 237.800 C 397.200 236.590,397.380 235.600,397.600 235.600 C 397.820 235.600,398.000 234.621,398.000 233.424 C 398.000 232.227,398.180 231.136,398.400 231.000 C 398.620 230.864,398.800 229.518,398.800 228.010 C 398.800 226.171,398.965 225.212,399.300 225.100 C 399.693 224.969,399.800 219.591,399.800 200.000 C 399.800 180.409,399.693 175.031,399.300 174.900 C 398.965 174.788,398.800 173.829,398.800 171.990 C 398.800 170.482,398.620 169.136,398.400 169.000 C 398.180 168.864,398.000 167.773,398.000 166.576 C 398.000 165.379,397.820 164.400,397.600 164.400 C 397.380 164.400,397.200 163.410,397.200 162.200 C 397.200 160.990,397.020 160.000,396.800 160.000 C 396.580 160.000,396.400 159.280,396.400 158.400 C 396.400 157.520,396.220 156.800,396.000 156.800 C 395.780 156.800,395.600 156.001,395.600 155.024 C 395.600 154.047,395.420 153.136,395.200 153.000 C 394.980 152.864,394.800 152.043,394.800 151.176 C 394.800 150.309,394.620 149.600,394.400 149.600 C 394.180 149.600,394.000 148.970,394.000 148.200 C 394.000 147.430,393.820 146.800,393.600 146.800 C 393.380 146.800,393.200 146.170,393.200 145.400 C 393.200 144.630,393.020 144.000,392.800 144.000 C 392.580 144.000,392.400 143.370,392.400 142.600 C 392.400 141.830,392.220 141.200,392.000 141.200 C 391.780 141.200,391.600 140.753,391.600 140.206 C 391.600 139.350,389.416 132.162,388.438 129.800 C 387.380 127.245,387.072 126.531,386.753 125.905 C 386.559 125.523,386.400 124.938,386.400 124.605 C 386.400 124.272,386.220 124.000,386.000 124.000 C 385.780 124.000,385.600 123.561,385.600 123.024 C 385.600 122.487,385.420 121.936,385.200 121.800 C 384.980 121.664,384.800 121.203,384.800 120.776 C 384.800 120.349,384.620 120.000,384.400 120.000 C 384.180 120.000,384.000 119.640,384.000 119.200 C 384.000 118.760,383.820 118.400,383.600 118.400 C 383.380 118.400,383.200 118.040,383.200 117.600 C 383.200 117.160,383.020 116.800,382.800 116.800 C 382.580 116.800,382.400 116.350,382.400 115.800 C 382.400 115.250,382.220 114.800,382.000 114.800 C 381.780 114.800,381.600 114.547,381.600 114.238 C 381.600 113.572,379.932 110.259,379.500 110.067 C 379.335 109.993,379.200 109.588,379.200 109.167 C 379.200 108.745,379.020 108.400,378.800 108.400 C 378.580 108.400,378.400 108.040,378.400 107.600 C 378.400 107.160,378.220 106.800,378.000 106.800 C 377.780 106.800,377.600 106.440,377.600 106.000 C 377.600 105.560,377.420 105.200,377.200 105.200 C 376.980 105.200,376.800 104.964,376.800 104.675 C 376.800 104.387,376.440 103.764,376.000 103.292 C 375.560 102.820,375.200 102.252,375.200 102.030 C 375.200 101.358,373.874 98.800,373.526 98.800 C 373.347 98.800,373.200 98.440,373.200 98.000 C 373.200 97.560,373.020 97.200,372.800 97.200 C 372.580 97.200,372.400 97.007,372.400 96.772 C 372.400 96.537,371.860 95.559,371.200 94.600 C 370.540 93.641,370.000 92.703,370.000 92.516 C 370.000 92.329,369.640 91.917,369.200 91.600 C 368.760 91.283,368.400 90.743,368.400 90.400 C 368.400 90.057,368.040 89.517,367.600 89.200 C 367.160 88.883,366.800 88.343,366.800 88.000 C 366.800 87.657,366.440 87.117,366.000 86.800 C 365.560 86.483,365.200 85.991,365.200 85.708 C 365.200 85.425,364.660 84.628,364.000 83.937 C 363.340 83.246,362.800 82.478,362.800 82.229 C 362.800 81.980,362.440 81.517,362.000 81.200 C 361.560 80.883,361.200 80.387,361.200 80.098 C 361.200 79.810,360.570 78.943,359.800 78.173 C 359.030 77.403,358.400 76.635,358.400 76.465 C 358.400 76.295,357.770 75.469,357.000 74.628 C 356.230 73.787,355.600 72.946,355.600 72.758 C 355.600 72.571,354.610 71.427,353.400 70.217 C 352.190 69.007,351.200 67.847,351.200 67.639 C 351.200 67.431,349.310 65.348,347.000 63.009 C 344.690 60.671,342.800 58.894,342.800 59.060 C 342.800 59.227,342.485 58.944,342.100 58.432 C 340.903 56.842,332.780 48.800,332.371 48.800 C 332.157 48.800,330.993 47.810,329.783 46.600 C 328.573 45.390,327.426 44.400,327.234 44.400 C 327.042 44.400,326.307 43.860,325.600 43.200 C 324.893 42.540,324.176 42.000,324.006 42.000 C 323.836 42.000,322.955 41.280,322.048 40.400 C 321.141 39.520,320.169 38.800,319.888 38.800 C 319.607 38.800,319.117 38.440,318.800 38.000 C 318.483 37.560,318.020 37.200,317.771 37.200 C 317.522 37.200,316.754 36.660,316.063 36.000 C 315.372 35.340,314.575 34.800,314.292 34.800 C 314.009 34.800,313.517 34.440,313.200 34.000 C 312.883 33.560,312.343 33.200,312.000 33.200 C 311.657 33.200,311.117 32.840,310.800 32.400 C 310.483 31.960,309.943 31.600,309.600 31.600 C 309.257 31.600,308.717 31.240,308.400 30.800 C 308.083 30.360,307.671 30.000,307.484 30.000 C 307.297 30.000,306.359 29.460,305.400 28.800 C 304.441 28.140,303.463 27.600,303.228 27.600 C 302.993 27.600,302.800 27.420,302.800 27.200 C 302.800 26.980,302.440 26.800,302.000 26.800 C 301.560 26.800,301.200 26.653,301.200 26.474 C 301.200 26.126,298.642 24.800,297.970 24.800 C 297.748 24.800,297.180 24.440,296.708 24.000 C 296.236 23.560,295.613 23.200,295.325 23.200 C 295.036 23.200,294.800 23.020,294.800 22.800 C 294.800 22.580,294.440 22.400,294.000 22.400 C 293.560 22.400,293.200 22.220,293.200 22.000 C 293.200 21.780,292.840 21.600,292.400 21.600 C 291.960 21.600,291.600 21.420,291.600 21.200 C 291.600 20.980,291.255 20.800,290.833 20.800 C 290.412 20.800,290.007 20.665,289.933 20.500 C 289.741 20.068,286.428 18.400,285.762 18.400 C 285.453 18.400,285.200 18.220,285.200 18.000 C 285.200 17.780,284.750 17.600,284.200 17.600 C 283.650 17.600,283.200 17.420,283.200 17.200 C 283.200 16.980,282.840 16.800,282.400 16.800 C 281.960 16.800,281.600 16.620,281.600 16.400 C 281.600 16.180,281.240 16.000,280.800 16.000 C 280.360 16.000,280.000 15.820,280.000 15.600 C 280.000 15.380,279.651 15.200,279.224 15.200 C 278.797 15.200,278.336 15.020,278.200 14.800 C 278.064 14.580,277.513 14.400,276.976 14.400 C 276.439 14.400,276.000 14.220,276.000 14.000 C 276.000 13.780,275.728 13.600,275.395 13.600 C 275.062 13.600,274.477 13.441,274.095 13.247 C 273.713 13.052,272.905 12.692,272.300 12.447 C 271.695 12.201,270.795 11.828,270.300 11.617 C 268.726 10.946,263.027 9.096,262.308 9.021 C 261.928 8.982,261.493 8.826,261.341 8.675 C 261.190 8.524,260.557 8.400,259.933 8.400 C 259.310 8.400,258.800 8.220,258.800 8.000 C 258.800 7.780,258.170 7.600,257.400 7.600 C 256.630 7.600,256.000 7.420,256.000 7.200 C 256.000 6.980,255.370 6.800,254.600 6.800 C 253.830 6.800,253.200 6.620,253.200 6.400 C 253.200 6.180,252.570 6.000,251.800 6.000 C 251.030 6.000,250.400 5.820,250.400 5.600 C 250.400 5.380,249.691 5.200,248.824 5.200 C 247.957 5.200,247.136 5.020,247.000 4.800 C 246.864 4.580,245.953 4.400,244.976 4.400 C 243.999 4.400,243.200 4.220,243.200 4.000 C 243.200 3.780,242.480 3.600,241.600 3.600 C 240.720 3.600,240.000 3.420,240.000 3.200 C 240.000 2.980,239.010 2.800,237.800 2.800 C 236.590 2.800,235.600 2.620,235.600 2.400 C 235.600 2.180,234.621 2.000,233.424 2.000 C 232.227 2.000,231.136 1.820,231.000 1.600 C 230.864 1.380,229.518 1.200,228.010 1.200 C 226.233 1.200,225.210 1.031,225.107 0.720 C 224.948 0.244,188.291 -0.109,178.700 0.273 M254.928 77.700 C 255.557 78.162,255.601 79.885,255.504 100.400 L 255.400 122.600 239.000 122.800 C 214.179 123.103,214.657 122.586,214.889 148.800 L 215.000 161.400 234.784 161.504 C 245.665 161.561,254.703 161.743,254.869 161.909 C 255.191 162.231,254.793 167.130,253.220 182.200 C 253.014 184.180,252.663 187.690,252.441 190.000 C 252.219 192.310,251.833 196.090,251.585 198.400 C 251.336 200.710,251.012 203.770,250.866 205.200 L 250.600 207.800 232.800 208.000 L 215.000 208.200 214.899 273.454 L 214.798 338.707 213.899 338.948 C 211.578 339.570,161.272 339.214,160.629 338.571 C 160.062 338.005,160.000 331.504,160.000 272.977 L 160.000 208.011 147.300 207.906 L 134.600 207.800 134.600 184.800 L 134.600 161.800 147.300 161.694 L 160.000 161.589 159.997 147.494 C 159.994 134.314,160.382 125.843,161.183 121.600 C 161.370 120.610,161.733 118.720,161.990 117.400 C 164.985 102.001,174.785 89.033,188.130 82.810 C 190.029 81.925,191.846 81.200,192.168 81.200 C 192.490 81.200,192.851 81.041,192.971 80.846 C 193.092 80.651,193.687 80.396,194.295 80.279 C 194.903 80.162,196.120 79.857,197.000 79.602 C 199.189 78.966,202.259 78.419,207.000 77.818 C 212.707 77.095,253.966 76.993,254.928 77.700 " stroke="none" fill="#3c5c9b" fill-rule="evenodd"></path><path id="path2" d="M221.300 77.900 C 226.525 77.963,235.075 77.963,240.300 77.900 C 245.525 77.836,241.250 77.785,230.800 77.785 C 220.350 77.785,216.075 77.836,221.300 77.900 M207.300 78.291 C 208.125 78.378,209.475 78.378,210.300 78.291 C 211.125 78.205,210.450 78.134,208.800 78.134 C 207.150 78.134,206.475 78.205,207.300 78.291 M254.600 99.920 L 254.600 121.800 240.000 122.010 L 225.400 122.220 240.200 122.210 L 255.000 122.200 255.103 100.423 C 255.160 88.446,255.070 78.510,254.903 78.343 C 254.737 78.176,254.600 87.886,254.600 99.920 M202.200 78.800 L 200.600 79.086 202.000 79.115 C 202.770 79.131,203.760 78.989,204.200 78.800 C 205.143 78.395,204.462 78.395,202.200 78.800 M195.200 80.400 C 194.376 80.664,194.341 80.726,195.000 80.754 C 195.440 80.773,196.070 80.613,196.400 80.400 C 197.101 79.947,196.614 79.947,195.200 80.400 M190.900 81.834 C 190.185 82.146,189.600 82.494,189.600 82.607 C 189.600 82.815,192.406 81.727,192.746 81.387 C 193.086 81.047,192.220 81.257,190.900 81.834 M185.900 84.229 C 184.405 85.040,184.496 85.378,186.000 84.600 C 186.660 84.259,187.200 83.894,187.200 83.790 C 187.200 83.532,187.157 83.547,185.900 84.229 M175.586 91.896 C 174.384 93.159,174.099 93.564,174.952 92.796 C 177.492 90.513,178.381 89.600,178.068 89.600 C 177.906 89.600,176.789 90.633,175.586 91.896 M170.673 97.700 C 169.079 99.955,167.558 102.507,168.109 102.000 C 168.544 101.600,172.786 95.200,172.615 95.200 C 172.519 95.200,171.645 96.325,170.673 97.700 M221.621 122.779 C 221.246 123.016,221.670 123.065,222.821 122.918 C 223.799 122.792,224.675 122.625,224.767 122.545 C 225.142 122.219,222.155 122.440,221.621 122.779 M218.462 124.640 C 217.536 125.432,216.509 126.602,216.179 127.240 C 215.345 128.854,215.747 128.695,216.734 127.021 C 217.182 126.263,218.306 125.093,219.234 124.421 C 220.161 123.750,220.745 123.200,220.532 123.200 C 220.319 123.200,219.387 123.848,218.462 124.640 M160.942 128.200 C 160.941 130.180,161.008 131.040,161.092 130.112 C 161.176 129.184,161.177 127.564,161.095 126.512 C 161.012 125.460,160.943 126.220,160.942 128.200 M160.309 147.000 C 160.249 155.250,160.335 162.000,160.500 162.000 C 160.665 162.000,160.800 155.250,160.800 147.000 C 160.800 138.750,160.714 132.000,160.609 132.000 C 160.505 132.000,160.370 138.750,160.309 147.000 M214.487 147.300 C 214.439 155.385,214.535 162.000,214.700 162.000 C 214.973 162.001,214.967 150.990,214.686 137.800 C 214.625 134.940,214.535 139.215,214.487 147.300 M134.984 162.500 C 134.878 162.775,134.839 173.080,134.896 185.400 L 135.000 207.800 135.200 184.900 C 135.310 172.305,135.349 162.000,135.287 162.000 C 135.226 162.000,135.089 162.225,134.984 162.500 M254.520 164.000 C 254.520 165.210,254.595 165.705,254.687 165.100 C 254.778 164.495,254.778 163.505,254.687 162.900 C 254.595 162.295,254.520 162.790,254.520 164.000 M254.093 168.000 C 254.093 168.770,254.175 169.085,254.276 168.700 C 254.376 168.315,254.376 167.685,254.276 167.300 C 254.175 166.915,254.093 167.230,254.093 168.000 M253.714 172.600 C 253.717 173.700,253.795 174.103,253.887 173.495 C 253.979 172.886,253.977 171.986,253.882 171.495 C 253.787 171.003,253.711 171.500,253.714 172.600 M252.914 180.200 C 252.917 181.300,252.995 181.703,253.087 181.095 C 253.179 180.486,253.177 179.586,253.082 179.095 C 252.987 178.603,252.911 179.100,252.914 180.200 M252.120 187.600 C 252.120 188.810,252.195 189.305,252.287 188.700 C 252.378 188.095,252.378 187.105,252.287 186.500 C 252.195 185.895,252.120 186.390,252.120 187.600 M251.693 191.200 C 251.693 191.970,251.775 192.285,251.876 191.900 C 251.976 191.515,251.976 190.885,251.876 190.500 C 251.775 190.115,251.693 190.430,251.693 191.200 M251.029 197.229 C 250.876 198.579,250.833 199.766,250.933 199.867 C 251.034 199.967,251.244 198.947,251.400 197.600 C 251.556 196.253,251.599 195.066,251.495 194.962 C 251.391 194.858,251.181 195.878,251.029 197.229 M250.229 204.829 C 250.076 206.179,250.033 207.366,250.133 207.467 C 250.234 207.567,250.444 206.547,250.600 205.200 C 250.756 203.853,250.799 202.666,250.695 202.562 C 250.591 202.458,250.381 203.478,250.229 204.829 M148.000 207.897 L 160.400 208.011 160.400 272.982 C 160.400 308.716,160.535 338.036,160.700 338.138 C 160.865 338.240,160.910 308.956,160.800 273.062 L 160.600 207.800 148.100 207.791 L 135.600 207.783 148.000 207.897 M214.667 207.867 C 214.520 208.013,214.400 237.338,214.400 273.033 C 214.400 316.956,214.267 337.999,213.990 338.137 C 213.764 338.249,213.810 338.294,214.090 338.237 C 214.500 338.154,214.620 325.417,214.701 273.071 L 214.802 208.008 232.301 207.900 L 249.800 207.791 232.367 207.696 C 222.778 207.643,214.813 207.720,214.667 207.867 " stroke="none" fill="#aab4d3" fill-rule="evenodd"></path><path id="path3" d="M209.000 77.563 C 207.900 77.693,217.416 77.741,230.147 77.668 C 242.878 77.596,253.724 77.645,254.250 77.777 L 255.207 78.017 255.103 100.108 L 255.000 122.200 240.000 122.410 L 225.000 122.620 240.200 122.610 L 255.400 122.600 255.504 100.400 C 255.601 79.885,255.557 78.162,254.928 77.700 C 254.214 77.176,213.297 77.053,209.000 77.563 M202.600 78.419 C 202.042 78.671,202.285 78.707,203.400 78.538 C 204.280 78.404,205.075 78.228,205.167 78.147 C 205.510 77.844,203.368 78.071,202.600 78.419 M198.400 79.218 C 197.962 79.515,198.124 79.552,199.000 79.356 C 200.471 79.027,200.790 78.798,199.767 78.806 C 199.345 78.809,198.730 78.995,198.400 79.218 M185.100 84.229 C 183.605 85.040,183.696 85.378,185.200 84.600 C 185.860 84.259,186.400 83.894,186.400 83.790 C 186.400 83.532,186.357 83.547,185.100 84.229 M181.893 86.214 C 181.072 86.772,180.400 87.315,180.400 87.420 C 180.400 87.525,181.120 87.135,182.000 86.553 C 183.397 85.628,183.870 85.200,183.493 85.200 C 183.434 85.200,182.714 85.656,181.893 86.214 M171.729 95.700 C 171.284 96.195,170.776 96.870,170.601 97.200 C 170.263 97.837,170.355 97.750,171.976 95.900 C 172.506 95.295,172.849 94.800,172.739 94.800 C 172.629 94.800,172.175 95.205,171.729 95.700 M161.800 118.000 C 161.648 118.691,161.607 119.341,161.709 119.442 C 161.811 119.544,162.009 119.053,162.150 118.350 C 162.483 116.683,162.160 116.360,161.800 118.000 M161.000 122.000 C 160.848 122.691,160.807 123.341,160.909 123.442 C 161.011 123.544,161.209 123.053,161.350 122.350 C 161.683 120.683,161.360 120.360,161.000 122.000 M216.221 127.824 C 215.852 128.388,215.606 129.001,215.675 129.186 C 215.744 129.371,216.111 128.910,216.492 128.162 C 217.309 126.553,217.168 126.378,216.221 127.824 M160.261 130.292 C 160.121 131.781,160.004 139.432,160.003 147.294 L 160.000 161.589 147.300 161.694 L 134.600 161.800 134.497 184.577 C 134.440 197.104,134.530 207.490,134.697 207.657 C 134.863 207.824,135.000 197.664,135.000 185.080 L 135.000 162.200 147.600 162.000 L 160.200 161.800 160.408 144.800 C 160.523 135.450,160.594 127.751,160.567 127.692 C 160.540 127.632,160.402 128.802,160.261 130.292 M214.909 132.800 C 214.909 133.790,214.987 134.195,215.082 133.700 C 215.178 133.205,215.178 132.395,215.082 131.900 C 214.987 131.405,214.909 131.810,214.909 132.800 M215.062 161.700 C 215.164 161.865,224.135 162.000,234.997 162.000 L 254.747 162.000 254.931 163.100 C 255.107 164.145,255.113 164.140,255.058 163.000 L 255.000 161.800 234.938 161.600 C 223.904 161.490,214.960 161.535,215.062 161.700 M254.246 169.046 C 254.100 170.293,254.059 171.393,254.157 171.490 C 254.254 171.588,254.461 170.654,254.615 169.415 C 254.770 168.177,254.810 167.077,254.705 166.971 C 254.599 166.866,254.393 167.799,254.246 169.046 M253.446 177.046 C 253.300 178.293,253.259 179.393,253.357 179.490 C 253.454 179.588,253.661 178.654,253.815 177.415 C 253.970 176.177,254.010 175.077,253.905 174.971 C 253.799 174.866,253.593 175.799,253.446 177.046 M252.646 184.646 C 252.500 185.893,252.459 186.993,252.557 187.090 C 252.654 187.188,252.861 186.254,253.015 185.015 C 253.170 183.777,253.210 182.677,253.105 182.571 C 252.999 182.466,252.793 183.399,252.646 184.646 M252.101 191.400 C 252.105 192.280,252.187 192.593,252.283 192.095 C 252.379 191.598,252.375 190.878,252.275 190.495 C 252.175 190.113,252.096 190.520,252.101 191.400 M251.701 194.600 C 251.705 195.480,251.787 195.793,251.883 195.295 C 251.979 194.798,251.975 194.078,251.875 193.695 C 251.775 193.313,251.696 193.720,251.701 194.600 M250.987 200.587 C 250.831 202.044,250.789 203.323,250.895 203.428 C 251.001 203.534,251.210 202.423,251.360 200.960 C 251.510 199.497,251.551 198.218,251.452 198.118 C 251.352 198.019,251.143 199.129,250.987 200.587 M250.352 206.713 C 250.221 207.507,250.279 207.881,250.501 207.659 C 250.703 207.457,250.801 206.867,250.719 206.346 C 250.593 205.545,250.537 205.602,250.352 206.713 M160.098 272.871 C 160.010 331.578,160.061 338.004,160.629 338.571 C 161.663 339.606,214.800 339.490,214.800 338.453 C 214.800 338.314,202.605 338.200,187.700 338.200 L 160.600 338.200 160.398 273.000 L 160.196 207.800 160.098 272.871 " stroke="none" fill="#93a3c4" fill-rule="evenodd"></path><path id="path4" d="M250.700 77.889 C 251.415 77.978,252.585 77.978,253.300 77.889 C 254.015 77.801,253.430 77.728,252.000 77.728 C 250.570 77.728,249.985 77.801,250.700 77.889 " stroke="none" fill="#9caccc" fill-rule="evenodd"></path></g></svg>