<svg id="svg" version="1.1" xmlns="http://www.w3.org/2000/svg" xmlns:xlink="http://www.w3.org/1999/xlink" width="400" height="400" viewBox="0, 0, 400,400"><g id="svgg"><path id="path0" d="M117.200 86.383 C 116.650 86.559,115.390 86.928,114.400 87.204 C 106.535 89.391,100.562 95.162,98.021 103.025 C 97.080 105.937,96.791 114.489,97.583 115.969 C 97.813 116.397,98.000 117.098,98.000 117.527 C 98.000 120.167,102.712 126.893,106.599 129.803 C 115.296 136.312,130.292 136.332,140.000 129.848 C 141.844 128.617,146.000 124.470,146.000 123.862 C 146.000 123.676,146.341 123.045,146.757 122.460 C 150.754 116.848,150.748 104.034,146.746 98.338 C 146.336 97.754,146.000 97.159,146.000 97.015 C 146.000 96.453,142.540 92.454,141.515 91.831 C 140.918 91.469,140.184 90.927,139.884 90.627 C 139.104 89.847,134.916 87.836,132.800 87.226 C 131.810 86.940,130.478 86.548,129.840 86.353 C 128.415 85.919,118.578 85.942,117.200 86.383 M258.600 152.210 C 255.740 152.505,252.680 152.930,251.800 153.155 C 250.920 153.380,249.660 153.679,249.000 153.819 C 248.340 153.959,247.037 154.417,246.104 154.837 C 245.172 155.257,244.245 155.600,244.045 155.600 C 243.687 155.600,240.904 157.020,237.826 158.773 C 234.306 160.778,227.516 167.031,225.201 170.400 C 224.672 171.170,224.139 171.890,224.017 172.000 C 223.895 172.110,223.269 172.905,222.626 173.767 C 220.965 175.993,220.861 175.446,220.828 164.297 L 220.800 154.794 197.500 154.897 L 174.200 155.000 174.298 196.600 C 174.353 219.480,174.263 251.610,174.098 268.000 C 173.901 287.750,173.935 297.899,174.200 298.094 C 174.420 298.256,184.995 298.391,197.700 298.394 L 220.800 298.400 220.814 258.700 C 220.828 220.166,220.989 213.513,222.013 209.101 C 222.507 206.973,224.744 201.912,225.298 201.667 C 225.464 201.593,225.600 201.277,225.600 200.963 C 225.600 198.951,234.567 191.747,239.000 190.196 C 245.402 187.958,256.652 188.967,259.993 192.079 C 260.418 192.476,260.946 192.800,261.165 192.800 C 262.724 192.800,269.581 202.549,269.605 204.800 C 269.609 205.130,269.890 206.200,270.231 207.178 C 271.631 211.198,271.728 213.959,271.965 256.200 L 272.200 298.200 295.724 298.303 L 319.248 298.406 319.075 251.903 C 318.929 212.617,318.807 204.841,318.291 201.800 C 317.503 197.154,316.467 192.174,315.920 190.400 C 315.123 187.814,314.721 186.605,314.360 185.700 C 314.162 185.205,313.841 184.395,313.647 183.900 C 312.696 181.473,309.045 174.400,308.743 174.400 C 308.555 174.400,308.400 174.173,308.400 173.896 C 308.400 172.577,301.975 165.474,298.000 162.399 C 297.010 161.633,296.140 160.870,296.067 160.703 C 295.993 160.536,295.756 160.400,295.539 160.400 C 295.322 160.400,294.392 159.898,293.472 159.284 C 291.908 158.241,288.825 156.678,287.000 156.003 C 286.560 155.840,285.750 155.521,285.200 155.294 C 283.547 154.611,281.910 154.102,279.800 153.615 C 278.700 153.361,277.170 152.998,276.400 152.809 C 275.143 152.501,273.373 152.333,266.000 151.825 C 264.790 151.742,261.460 151.915,258.600 152.210 M100.099 155.129 C 99.700 155.383,99.618 169.988,99.699 226.824 L 99.800 298.200 123.200 298.200 L 146.600 298.200 146.600 226.600 L 146.600 155.000 123.600 154.904 C 110.950 154.852,100.375 154.953,100.099 155.129 " stroke="none" fill="#f3f3f3" fill-rule="evenodd"></path><path id="path1" d="M122.300 85.489 C 123.015 85.578,124.185 85.578,124.900 85.489 C 125.615 85.401,125.030 85.328,123.600 85.328 C 122.170 85.328,121.585 85.401,122.300 85.489 M117.905 85.883 C 118.402 85.979,119.122 85.975,119.505 85.875 C 119.887 85.775,119.480 85.696,118.600 85.701 C 117.720 85.705,117.407 85.787,117.905 85.883 M127.905 85.883 C 128.402 85.979,129.122 85.975,129.505 85.875 C 129.887 85.775,129.480 85.696,128.600 85.701 C 127.720 85.705,127.407 85.787,127.905 85.883 M109.500 88.427 C 108.675 88.863,108.000 89.308,108.000 89.418 C 108.000 89.596,111.159 88.119,111.567 87.751 C 112.027 87.334,110.825 87.728,109.500 88.427 M143.000 92.800 C 143.859 93.680,144.652 94.400,144.762 94.400 C 144.872 94.400,144.259 93.680,143.400 92.800 C 142.541 91.920,141.748 91.200,141.638 91.200 C 141.528 91.200,142.141 91.920,143.000 92.800 M103.375 92.900 L 102.200 94.200 103.500 93.025 C 104.712 91.930,104.984 91.600,104.675 91.600 C 104.606 91.600,104.021 92.185,103.375 92.900 M101.123 95.500 C 100.418 96.321,99.890 97.200,100.101 97.200 C 100.183 97.200,100.649 96.660,101.137 96.000 C 102.101 94.696,102.092 94.372,101.123 95.500 M150.093 109.200 C 150.093 109.970,150.175 110.285,150.276 109.900 C 150.376 109.515,150.376 108.885,150.276 108.500 C 150.175 108.115,150.093 108.430,150.093 109.200 M96.258 111.200 C 96.575 112.925,96.802 113.251,96.794 111.967 C 96.791 111.435,96.611 110.730,96.394 110.400 C 96.118 109.978,96.077 110.215,96.258 111.200 M150.093 112.000 C 150.093 112.770,150.175 113.085,150.276 112.700 C 150.376 112.315,150.376 111.685,150.276 111.300 C 150.175 110.915,150.093 111.230,150.093 112.000 M126.900 135.076 C 127.285 135.176,127.915 135.176,128.300 135.076 C 128.685 134.975,128.370 134.893,127.600 134.893 C 126.830 134.893,126.515 134.975,126.900 135.076 M263.511 151.493 C 264.451 151.578,265.891 151.577,266.711 151.491 C 267.530 151.405,266.760 151.336,265.000 151.337 C 263.240 151.339,262.570 151.409,263.511 151.493 M255.700 151.876 C 256.085 151.976,256.715 151.976,257.100 151.876 C 257.485 151.775,257.170 151.693,256.400 151.693 C 255.630 151.693,255.315 151.775,255.700 151.876 M277.800 152.800 C 278.240 152.989,278.960 153.138,279.400 153.132 C 280.043 153.123,280.004 153.057,279.200 152.800 C 277.832 152.362,276.781 152.362,277.800 152.800 M99.462 154.700 C 99.360 154.865,110.014 155.000,123.138 155.000 L 147.000 155.000 147.202 226.600 L 147.403 298.200 147.502 226.780 C 147.578 171.655,147.490 155.250,147.120 154.880 C 146.576 154.336,99.796 154.159,99.462 154.700 M173.380 154.908 C 173.273 155.187,173.237 159.732,173.300 165.008 L 173.415 174.600 173.508 164.703 L 173.600 154.806 197.300 154.700 L 221.000 154.594 197.287 154.497 C 178.419 154.420,173.535 154.504,173.380 154.908 M221.292 164.300 C 221.191 174.978,221.317 175.475,223.353 172.400 C 223.935 171.520,224.325 170.800,224.220 170.800 C 224.115 170.800,223.579 171.462,223.029 172.271 C 221.663 174.281,221.622 174.048,221.494 163.600 L 221.384 154.600 221.292 164.300 M242.000 155.800 C 241.450 156.114,241.180 156.372,241.400 156.372 C 241.620 156.372,242.250 156.114,242.800 155.800 C 243.350 155.486,243.620 155.228,243.400 155.228 C 243.180 155.228,242.550 155.486,242.000 155.800 M228.989 165.300 L 226.200 168.200 229.100 165.411 C 230.695 163.877,232.000 162.572,232.000 162.511 C 232.000 162.217,231.580 162.606,228.989 165.300 M302.600 166.000 C 303.683 167.100,304.660 168.000,304.770 168.000 C 304.880 168.000,304.083 167.100,303.000 166.000 C 301.917 164.900,300.940 164.000,300.830 164.000 C 300.720 164.000,301.517 164.900,302.600 166.000 M308.615 173.500 C 309.956 175.585,310.400 176.177,310.400 175.880 C 310.400 175.496,308.355 172.400,308.101 172.400 C 307.995 172.400,308.226 172.895,308.615 173.500 M244.900 189.476 C 245.285 189.576,245.915 189.576,246.300 189.476 C 246.685 189.375,246.370 189.293,245.600 189.293 C 244.830 189.293,244.515 189.375,244.900 189.476 M251.300 189.876 C 251.685 189.976,252.315 189.976,252.700 189.876 C 253.085 189.775,252.770 189.693,252.000 189.693 C 251.230 189.693,250.915 189.775,251.300 189.876 M230.271 196.100 L 227.734 198.600 230.167 196.427 C 231.505 195.232,232.771 194.107,232.980 193.927 C 233.189 193.747,233.236 193.600,233.084 193.600 C 232.932 193.600,231.666 194.725,230.271 196.100 M318.068 198.600 C 318.062 199.040,318.211 199.760,318.400 200.200 C 318.838 201.219,318.838 200.168,318.400 198.800 C 318.143 197.996,318.077 197.957,318.068 198.600 M267.878 202.195 C 268.244 202.962,268.614 203.519,268.701 203.432 C 268.884 203.249,267.670 200.800,267.396 200.800 C 267.295 200.800,267.512 201.428,267.878 202.195 M225.053 202.500 L 224.333 203.800 225.158 202.800 C 225.889 201.913,226.214 201.200,225.886 201.200 C 225.824 201.200,225.449 201.785,225.053 202.500 M319.091 207.000 C 319.211 208.540,319.375 209.875,319.455 209.967 C 319.722 210.273,319.509 206.616,319.189 205.400 C 318.998 204.672,318.959 205.302,319.091 207.000 M269.844 207.800 C 270.173 209.271,270.402 209.590,270.394 208.567 C 270.391 208.145,270.205 207.530,269.982 207.200 C 269.685 206.762,269.648 206.924,269.844 207.800 M221.731 215.000 C 221.733 216.540,221.805 217.121,221.892 216.291 C 221.979 215.461,221.977 214.201,221.889 213.491 C 221.800 212.781,221.729 213.460,221.731 215.000 M271.314 218.600 C 271.317 219.700,271.395 220.103,271.487 219.495 C 271.579 218.886,271.577 217.986,271.482 217.495 C 271.387 217.003,271.311 217.500,271.314 218.600 M221.298 258.100 L 221.200 298.400 197.403 298.400 L 173.606 298.400 173.499 273.100 L 173.391 247.800 173.396 273.200 L 173.400 298.600 197.311 298.703 C 216.228 298.785,221.263 298.701,221.414 298.303 C 221.520 298.026,221.559 279.800,221.501 257.800 L 221.396 217.800 221.298 258.100 M271.943 298.503 C 272.110 298.670,282.946 298.760,296.023 298.703 L 319.800 298.600 295.720 298.400 C 282.476 298.290,271.776 298.336,271.943 298.503 M111.300 298.700 C 117.845 298.761,128.555 298.761,135.100 298.700 C 141.645 298.638,136.290 298.588,123.200 298.588 C 110.110 298.588,104.755 298.638,111.300 298.700 " stroke="none" fill="#5da8ce" fill-rule="evenodd"></path><path id="path2" d="M178.700 0.273 C 176.555 0.359,174.800 0.602,174.800 0.814 C 174.800 1.027,173.551 1.200,172.024 1.200 C 170.497 1.200,169.136 1.380,169.000 1.600 C 168.864 1.820,167.773 2.000,166.576 2.000 C 165.379 2.000,164.400 2.180,164.400 2.400 C 164.400 2.620,163.511 2.800,162.424 2.800 C 161.337 2.800,160.336 2.980,160.200 3.200 C 160.064 3.420,159.243 3.600,158.376 3.600 C 157.509 3.600,156.800 3.780,156.800 4.000 C 156.800 4.220,156.001 4.400,155.024 4.400 C 154.047 4.400,153.136 4.580,153.000 4.800 C 152.864 5.020,152.144 5.200,151.400 5.200 C 150.656 5.200,149.936 5.380,149.800 5.600 C 149.664 5.820,148.933 6.000,148.176 6.000 C 147.419 6.000,146.800 6.180,146.800 6.400 C 146.800 6.620,146.170 6.800,145.400 6.800 C 144.630 6.800,144.000 6.980,144.000 7.200 C 144.000 7.420,143.370 7.600,142.600 7.600 C 141.830 7.600,141.200 7.780,141.200 8.000 C 141.200 8.220,140.660 8.400,140.000 8.400 C 139.340 8.400,138.800 8.591,138.800 8.825 C 138.800 9.059,138.485 9.203,138.100 9.145 C 137.064 8.990,128.830 11.759,125.905 13.247 C 125.523 13.441,124.938 13.600,124.605 13.600 C 124.272 13.600,124.000 13.780,124.000 14.000 C 124.000 14.220,123.561 14.400,123.024 14.400 C 122.487 14.400,121.936 14.580,121.800 14.800 C 121.664 15.020,121.203 15.200,120.776 15.200 C 120.349 15.200,120.000 15.380,120.000 15.600 C 120.000 15.820,119.640 16.000,119.200 16.000 C 118.760 16.000,118.400 16.180,118.400 16.400 C 118.400 16.620,118.040 16.800,117.600 16.800 C 117.160 16.800,116.800 16.980,116.800 17.200 C 116.800 17.420,116.350 17.600,115.800 17.600 C 115.250 17.600,114.800 17.780,114.800 18.000 C 114.800 18.220,114.547 18.400,114.238 18.400 C 113.572 18.400,110.259 20.068,110.067 20.500 C 109.993 20.665,109.588 20.800,109.167 20.800 C 108.745 20.800,108.400 20.980,108.400 21.200 C 108.400 21.420,108.040 21.600,107.600 21.600 C 107.160 21.600,106.800 21.780,106.800 22.000 C 106.800 22.220,106.440 22.400,106.000 22.400 C 105.560 22.400,105.200 22.580,105.200 22.800 C 105.200 23.020,104.964 23.200,104.675 23.200 C 104.387 23.200,103.764 23.560,103.292 24.000 C 102.820 24.440,102.237 24.800,101.997 24.800 C 101.397 24.800,99.160 25.983,98.487 26.656 C 98.184 26.959,97.770 27.105,97.568 26.980 C 97.365 26.855,97.200 26.899,97.200 27.079 C 97.200 27.258,96.694 27.629,96.075 27.903 C 95.456 28.176,94.564 28.760,94.092 29.200 C 93.620 29.640,92.996 30.000,92.705 30.000 C 92.414 30.000,91.917 30.360,91.600 30.800 C 91.283 31.240,90.743 31.600,90.400 31.600 C 90.057 31.600,89.517 31.960,89.200 32.400 C 88.883 32.840,88.343 33.200,88.000 33.200 C 87.657 33.200,87.117 33.560,86.800 34.000 C 86.483 34.440,85.991 34.800,85.708 34.800 C 85.425 34.800,84.628 35.340,83.937 36.000 C 83.246 36.660,82.478 37.200,82.229 37.200 C 81.980 37.200,81.517 37.560,81.200 38.000 C 80.883 38.440,80.375 38.800,80.072 38.800 C 79.769 38.800,79.044 39.308,78.460 39.929 C 77.877 40.550,76.860 41.401,76.200 41.820 C 75.540 42.238,74.856 42.810,74.680 43.090 C 74.504 43.371,73.797 43.892,73.108 44.248 C 72.419 44.604,70.999 45.774,69.953 46.848 C 68.908 47.921,67.869 48.800,67.645 48.800 C 67.421 48.800,65.344 50.690,63.028 53.000 C 60.712 55.310,58.910 57.200,59.023 57.200 C 59.136 57.200,58.817 57.626,58.314 58.146 C 57.811 58.667,57.342 59.044,57.271 58.984 C 57.050 58.798,48.800 67.216,48.800 67.628 C 48.800 67.842,47.810 69.007,46.600 70.217 C 45.390 71.427,44.400 72.595,44.400 72.812 C 44.400 73.030,43.905 73.746,43.300 74.404 C 41.568 76.289,41.200 76.748,41.200 77.023 C 41.200 77.164,40.660 77.783,40.000 78.400 C 39.340 79.017,38.800 79.769,38.800 80.072 C 38.800 80.375,38.440 80.883,38.000 81.200 C 37.560 81.517,37.200 81.980,37.200 82.229 C 37.200 82.478,36.660 83.246,36.000 83.937 C 35.340 84.628,34.800 85.425,34.800 85.708 C 34.800 85.991,34.440 86.483,34.000 86.800 C 33.560 87.117,33.200 87.657,33.200 88.000 C 33.200 88.343,32.840 88.883,32.400 89.200 C 31.960 89.517,31.600 90.057,31.600 90.400 C 31.600 90.743,31.240 91.283,30.800 91.600 C 30.360 91.917,30.000 92.414,30.000 92.705 C 30.000 92.996,29.640 93.620,29.200 94.092 C 28.760 94.564,28.176 95.456,27.903 96.075 C 27.629 96.694,27.258 97.200,27.079 97.200 C 26.899 97.200,26.855 97.365,26.980 97.568 C 27.105 97.770,26.959 98.184,26.656 98.487 C 25.983 99.160,24.800 101.397,24.800 101.997 C 24.800 102.237,24.440 102.820,24.000 103.292 C 23.560 103.764,23.200 104.387,23.200 104.675 C 23.200 104.964,23.020 105.200,22.800 105.200 C 22.580 105.200,22.400 105.560,22.400 106.000 C 22.400 106.440,22.220 106.800,22.000 106.800 C 21.780 106.800,21.600 107.160,21.600 107.600 C 21.600 108.040,21.420 108.400,21.200 108.400 C 20.980 108.400,20.800 108.745,20.800 109.167 C 20.800 109.588,20.665 109.993,20.500 110.067 C 20.068 110.259,18.400 113.572,18.400 114.238 C 18.400 114.547,18.220 114.800,18.000 114.800 C 17.780 114.800,17.600 115.250,17.600 115.800 C 17.600 116.350,17.420 116.800,17.200 116.800 C 16.980 116.800,16.800 117.160,16.800 117.600 C 16.800 118.040,16.620 118.400,16.400 118.400 C 16.180 118.400,16.000 118.760,16.000 119.200 C 16.000 119.640,15.820 120.000,15.600 120.000 C 15.380 120.000,15.200 120.349,15.200 120.776 C 15.200 121.203,15.020 121.664,14.800 121.800 C 14.580 121.936,14.400 122.487,14.400 123.024 C 14.400 123.561,14.220 124.000,14.000 124.000 C 13.780 124.000,13.600 124.272,13.600 124.605 C 13.600 124.938,13.441 125.523,13.247 125.905 C 11.759 128.830,8.990 137.064,9.145 138.100 C 9.203 138.485,9.059 138.800,8.825 138.800 C 8.591 138.800,8.400 139.340,8.400 140.000 C 8.400 140.660,8.220 141.200,8.000 141.200 C 7.780 141.200,7.600 141.830,7.600 142.600 C 7.600 143.370,7.420 144.000,7.200 144.000 C 6.980 144.000,6.800 144.630,6.800 145.400 C 6.800 146.170,6.620 146.800,6.400 146.800 C 6.180 146.800,6.000 147.419,6.000 148.176 C 6.000 148.933,5.820 149.664,5.600 149.800 C 5.380 149.936,5.200 150.656,5.200 151.400 C 5.200 152.144,5.020 152.864,4.800 153.000 C 4.580 153.136,4.400 154.047,4.400 155.024 C 4.400 156.001,4.220 156.800,4.000 156.800 C 3.780 156.800,3.600 157.509,3.600 158.376 C 3.600 159.243,3.420 160.064,3.200 160.200 C 2.980 160.336,2.800 161.337,2.800 162.424 C 2.800 163.511,2.620 164.400,2.400 164.400 C 2.180 164.400,2.000 165.379,2.000 166.576 C 2.000 167.773,1.820 168.864,1.600 169.000 C 1.380 169.136,1.200 170.482,1.200 171.990 C 1.200 173.829,1.035 174.788,0.700 174.900 C -0.032 175.144,-0.032 224.856,0.700 225.100 C 1.035 225.212,1.200 226.171,1.200 228.010 C 1.200 229.518,1.380 230.864,1.600 231.000 C 1.820 231.136,2.000 232.227,2.000 233.424 C 2.000 234.621,2.180 235.600,2.400 235.600 C 2.620 235.600,2.800 236.590,2.800 237.800 C 2.800 239.010,2.980 240.000,3.200 240.000 C 3.420 240.000,3.600 240.720,3.600 241.600 C 3.600 242.480,3.780 243.200,4.000 243.200 C 4.220 243.200,4.400 243.999,4.400 244.976 C 4.400 245.953,4.580 246.864,4.800 247.000 C 5.020 247.136,5.200 247.957,5.200 248.824 C 5.200 249.691,5.380 250.400,5.600 250.400 C 5.820 250.400,6.000 251.030,6.000 251.800 C 6.000 252.570,6.180 253.200,6.400 253.200 C 6.620 253.200,6.800 253.830,6.800 254.600 C 6.800 255.370,6.980 256.000,7.200 256.000 C 7.420 256.000,7.600 256.630,7.600 257.400 C 7.600 258.170,7.780 258.800,8.000 258.800 C 8.220 258.800,8.400 259.340,8.400 260.000 C 8.400 260.660,8.591 261.200,8.825 261.200 C 9.059 261.200,9.203 261.515,9.145 261.900 C 8.990 262.936,11.759 271.170,13.247 274.095 C 13.441 274.477,13.600 275.062,13.600 275.395 C 13.600 275.728,13.780 276.000,14.000 276.000 C 14.220 276.000,14.400 276.439,14.400 276.976 C 14.400 277.513,14.580 278.064,14.800 278.200 C 15.020 278.336,15.200 278.797,15.200 279.224 C 15.200 279.651,15.380 280.000,15.600 280.000 C 15.820 280.000,16.000 280.360,16.000 280.800 C 16.000 281.240,16.180 281.600,16.400 281.600 C 16.620 281.600,16.800 281.960,16.800 282.400 C 16.800 282.840,16.980 283.200,17.200 283.200 C 17.420 283.200,17.600 283.472,17.600 283.805 C 17.600 284.138,17.760 284.723,17.956 285.105 C 18.152 285.487,18.737 286.700,19.256 287.800 C 19.775 288.900,20.335 289.860,20.500 289.933 C 20.665 290.007,20.800 290.412,20.800 290.833 C 20.800 291.255,20.980 291.600,21.200 291.600 C 21.420 291.600,21.600 291.960,21.600 292.400 C 21.600 292.840,21.780 293.200,22.000 293.200 C 22.220 293.200,22.400 293.560,22.400 294.000 C 22.400 294.440,22.580 294.800,22.800 294.800 C 23.020 294.800,23.200 295.036,23.200 295.325 C 23.200 295.613,23.560 296.236,24.000 296.708 C 24.440 297.180,24.800 297.763,24.800 298.003 C 24.800 298.603,25.983 300.840,26.656 301.513 C 26.959 301.816,27.105 302.230,26.980 302.432 C 26.855 302.635,26.943 302.800,27.176 302.800 C 27.409 302.800,27.600 302.993,27.600 303.228 C 27.600 303.463,28.140 304.441,28.800 305.400 C 29.460 306.359,30.000 307.297,30.000 307.484 C 30.000 307.671,30.360 308.083,30.800 308.400 C 31.240 308.717,31.600 309.257,31.600 309.600 C 31.600 309.943,31.960 310.483,32.400 310.800 C 32.840 311.117,33.200 311.657,33.200 312.000 C 33.200 312.343,33.560 312.883,34.000 313.200 C 34.440 313.517,34.800 314.009,34.800 314.292 C 34.800 314.575,35.340 315.372,36.000 316.063 C 36.660 316.754,37.200 317.522,37.200 317.771 C 37.200 318.020,37.560 318.483,38.000 318.800 C 38.440 319.117,38.800 319.625,38.800 319.928 C 38.800 320.231,39.308 320.956,39.929 321.540 C 40.550 322.123,41.401 323.140,41.820 323.800 C 42.238 324.460,42.810 325.144,43.090 325.320 C 43.371 325.496,43.892 326.203,44.248 326.892 C 44.604 327.581,45.774 329.001,46.848 330.047 C 47.921 331.092,48.800 332.130,48.800 332.353 C 48.800 332.776,56.805 340.875,58.432 342.100 C 58.944 342.485,59.227 342.800,59.060 342.800 C 58.894 342.800,60.671 344.690,63.009 347.000 C 65.348 349.310,67.431 351.200,67.639 351.200 C 67.847 351.200,69.007 352.190,70.217 353.400 C 71.427 354.610,72.571 355.600,72.758 355.600 C 72.946 355.600,73.787 356.230,74.628 357.000 C 75.469 357.770,76.279 358.400,76.428 358.400 C 76.577 358.400,77.387 359.030,78.228 359.800 C 79.069 360.570,79.951 361.200,80.190 361.200 C 80.428 361.200,80.883 361.560,81.200 362.000 C 81.517 362.440,81.980 362.800,82.229 362.800 C 82.478 362.800,83.246 363.340,83.937 364.000 C 84.628 364.660,85.425 365.200,85.708 365.200 C 85.991 365.200,86.483 365.560,86.800 366.000 C 87.117 366.440,87.657 366.800,88.000 366.800 C 88.343 366.800,88.883 367.160,89.200 367.600 C 89.517 368.040,90.057 368.400,90.400 368.400 C 90.743 368.400,91.283 368.760,91.600 369.200 C 91.917 369.640,92.414 370.000,92.705 370.000 C 92.996 370.000,93.620 370.360,94.092 370.800 C 94.564 371.240,95.456 371.824,96.075 372.097 C 96.694 372.371,97.200 372.731,97.200 372.898 C 97.200 373.064,97.560 373.200,98.000 373.200 C 98.440 373.200,98.800 373.347,98.800 373.526 C 98.800 373.874,101.358 375.200,102.030 375.200 C 102.252 375.200,102.820 375.560,103.292 376.000 C 103.764 376.440,104.387 376.800,104.675 376.800 C 104.964 376.800,105.200 376.980,105.200 377.200 C 105.200 377.420,105.560 377.600,106.000 377.600 C 106.440 377.600,106.800 377.780,106.800 378.000 C 106.800 378.220,107.160 378.400,107.600 378.400 C 108.040 378.400,108.400 378.580,108.400 378.800 C 108.400 379.020,108.745 379.200,109.167 379.200 C 109.588 379.200,109.993 379.335,110.067 379.500 C 110.259 379.932,113.572 381.600,114.238 381.600 C 114.547 381.600,114.800 381.780,114.800 382.000 C 114.800 382.220,115.250 382.400,115.800 382.400 C 116.350 382.400,116.800 382.580,116.800 382.800 C 116.800 383.020,117.160 383.200,117.600 383.200 C 118.040 383.200,118.400 383.380,118.400 383.600 C 118.400 383.820,118.760 384.000,119.200 384.000 C 119.640 384.000,120.000 384.180,120.000 384.400 C 120.000 384.620,120.349 384.800,120.776 384.800 C 121.203 384.800,121.664 384.980,121.800 385.200 C 121.936 385.420,122.487 385.600,123.024 385.600 C 123.561 385.600,124.000 385.780,124.000 386.000 C 124.000 386.220,124.272 386.400,124.605 386.400 C 124.938 386.400,125.523 386.559,125.905 386.753 C 126.531 387.072,127.245 387.380,129.800 388.438 C 132.162 389.416,139.350 391.600,140.206 391.600 C 140.753 391.600,141.200 391.780,141.200 392.000 C 141.200 392.220,141.830 392.400,142.600 392.400 C 143.370 392.400,144.000 392.580,144.000 392.800 C 144.000 393.020,144.630 393.200,145.400 393.200 C 146.170 393.200,146.800 393.380,146.800 393.600 C 146.800 393.820,147.430 394.000,148.200 394.000 C 148.970 394.000,149.600 394.180,149.600 394.400 C 149.600 394.620,150.309 394.800,151.176 394.800 C 152.043 394.800,152.864 394.980,153.000 395.200 C 153.136 395.420,154.047 395.600,155.024 395.600 C 156.001 395.600,156.800 395.780,156.800 396.000 C 156.800 396.220,157.520 396.400,158.400 396.400 C 159.280 396.400,160.000 396.580,160.000 396.800 C 160.000 397.020,160.990 397.200,162.200 397.200 C 163.410 397.200,164.400 397.380,164.400 397.600 C 164.400 397.822,165.467 398.000,166.800 398.000 C 168.133 398.000,169.200 398.178,169.200 398.400 C 169.200 398.627,170.373 398.800,171.920 398.800 C 173.563 398.800,174.838 398.998,175.140 399.300 C 175.869 400.029,224.131 400.029,224.860 399.300 C 225.162 398.998,226.437 398.800,228.080 398.800 C 229.627 398.800,230.800 398.627,230.800 398.400 C 230.800 398.178,231.867 398.000,233.200 398.000 C 234.533 398.000,235.600 397.822,235.600 397.600 C 235.600 397.380,236.590 397.200,237.800 397.200 C 239.010 397.200,240.000 397.020,240.000 396.800 C 240.000 396.580,240.720 396.400,241.600 396.400 C 242.480 396.400,243.200 396.220,243.200 396.000 C 243.200 395.780,243.999 395.600,244.976 395.600 C 245.953 395.600,246.864 395.420,247.000 395.200 C 247.136 394.980,247.957 394.800,248.824 394.800 C 249.691 394.800,250.400 394.620,250.400 394.400 C 250.400 394.180,251.030 394.000,251.800 394.000 C 252.570 394.000,253.200 393.820,253.200 393.600 C 253.200 393.380,253.830 393.200,254.600 393.200 C 255.370 393.200,256.000 393.020,256.000 392.800 C 256.000 392.580,256.630 392.400,257.400 392.400 C 258.170 392.400,258.800 392.220,258.800 392.000 C 258.800 391.780,259.247 391.600,259.794 391.600 C 260.688 391.600,268.047 389.348,270.300 388.385 C 270.795 388.173,271.695 387.799,272.300 387.553 C 272.905 387.308,273.713 386.948,274.095 386.753 C 274.477 386.559,275.062 386.400,275.395 386.400 C 275.728 386.400,276.000 386.220,276.000 386.000 C 276.000 385.780,276.439 385.600,276.976 385.600 C 277.513 385.600,278.064 385.420,278.200 385.200 C 278.336 384.980,278.797 384.800,279.224 384.800 C 279.651 384.800,280.000 384.620,280.000 384.400 C 280.000 384.180,280.360 384.000,280.800 384.000 C 281.240 384.000,281.600 383.820,281.600 383.600 C 281.600 383.380,281.960 383.200,282.400 383.200 C 282.840 383.200,283.200 383.020,283.200 382.800 C 283.200 382.580,283.650 382.400,284.200 382.400 C 284.750 382.400,285.200 382.220,285.200 382.000 C 285.200 381.780,285.453 381.600,285.762 381.600 C 286.428 381.600,289.741 379.932,289.933 379.500 C 290.007 379.335,290.412 379.200,290.833 379.200 C 291.255 379.200,291.600 379.020,291.600 378.800 C 291.600 378.580,291.960 378.400,292.400 378.400 C 292.840 378.400,293.200 378.220,293.200 378.000 C 293.200 377.780,293.560 377.600,294.000 377.600 C 294.440 377.600,294.800 377.420,294.800 377.200 C 294.800 376.980,295.036 376.800,295.325 376.800 C 295.613 376.800,296.236 376.440,296.708 376.000 C 297.180 375.560,297.844 375.200,298.183 375.200 C 298.522 375.200,298.800 375.020,298.800 374.800 C 298.800 374.580,298.935 374.436,299.100 374.479 C 299.646 374.623,301.200 373.953,301.200 373.573 C 301.200 373.368,301.560 373.200,302.000 373.200 C 302.440 373.200,302.800 373.020,302.800 372.800 C 302.800 372.580,302.993 372.400,303.228 372.400 C 303.463 372.400,304.441 371.860,305.400 371.200 C 306.359 370.540,307.297 370.000,307.484 370.000 C 307.671 370.000,308.083 369.640,308.400 369.200 C 308.717 368.760,309.257 368.400,309.600 368.400 C 309.943 368.400,310.483 368.040,310.800 367.600 C 311.117 367.160,311.657 366.800,312.000 366.800 C 312.343 366.800,312.883 366.440,313.200 366.000 C 313.517 365.560,314.009 365.200,314.292 365.200 C 314.575 365.200,315.372 364.660,316.063 364.000 C 316.754 363.340,317.522 362.800,317.771 362.800 C 318.020 362.800,318.483 362.440,318.800 362.000 C 319.117 361.560,319.572 361.200,319.810 361.200 C 320.049 361.200,320.931 360.570,321.772 359.800 C 322.613 359.030,323.423 358.400,323.572 358.400 C 323.721 358.400,324.531 357.770,325.372 357.000 C 326.213 356.230,327.054 355.600,327.242 355.600 C 327.429 355.600,328.573 354.610,329.783 353.400 C 330.993 352.190,332.157 351.200,332.371 351.200 C 332.584 351.200,334.703 349.230,337.079 346.821 C 342.316 341.514,341.514 342.316,346.821 337.079 C 349.230 334.703,351.200 332.584,351.200 332.371 C 351.200 332.157,352.190 330.993,353.400 329.783 C 354.610 328.573,355.600 327.429,355.600 327.242 C 355.600 327.054,356.230 326.213,357.000 325.372 C 357.770 324.531,358.400 323.705,358.400 323.535 C 358.400 323.365,359.030 322.597,359.800 321.827 C 360.570 321.057,361.200 320.190,361.200 319.902 C 361.200 319.613,361.560 319.117,362.000 318.800 C 362.440 318.483,362.800 318.020,362.800 317.771 C 362.800 317.522,363.340 316.754,364.000 316.063 C 364.660 315.372,365.200 314.575,365.200 314.292 C 365.200 314.009,365.560 313.517,366.000 313.200 C 366.440 312.883,366.800 312.343,366.800 312.000 C 366.800 311.657,367.160 311.117,367.600 310.800 C 368.040 310.483,368.400 309.943,368.400 309.600 C 368.400 309.257,368.760 308.717,369.200 308.400 C 369.640 308.083,370.000 307.671,370.000 307.484 C 370.000 307.297,370.540 306.359,371.200 305.400 C 371.860 304.441,372.400 303.463,372.400 303.228 C 372.400 302.993,372.580 302.800,372.800 302.800 C 373.020 302.800,373.200 302.440,373.200 302.000 C 373.200 301.560,373.368 301.200,373.573 301.200 C 373.953 301.200,374.623 299.646,374.479 299.100 C 374.436 298.935,374.580 298.800,374.800 298.800 C 375.020 298.800,375.200 298.522,375.200 298.183 C 375.200 297.844,375.560 297.180,376.000 296.708 C 376.440 296.236,376.800 295.613,376.800 295.325 C 376.800 295.036,376.980 294.800,377.200 294.800 C 377.420 294.800,377.600 294.440,377.600 294.000 C 377.600 293.560,377.780 293.200,378.000 293.200 C 378.220 293.200,378.400 292.840,378.400 292.400 C 378.400 291.960,378.580 291.600,378.800 291.600 C 379.020 291.600,379.200 291.255,379.200 290.833 C 379.200 290.412,379.335 290.007,379.500 289.933 C 379.665 289.860,380.225 288.900,380.744 287.800 C 381.263 286.700,381.848 285.487,382.044 285.105 C 382.240 284.723,382.400 284.138,382.400 283.805 C 382.400 283.472,382.580 283.200,382.800 283.200 C 383.020 283.200,383.200 282.840,383.200 282.400 C 383.200 281.960,383.380 281.600,383.600 281.600 C 383.820 281.600,384.000 281.240,384.000 280.800 C 384.000 280.360,384.180 280.000,384.400 280.000 C 384.620 280.000,384.800 279.651,384.800 279.224 C 384.800 278.797,384.980 278.336,385.200 278.200 C 385.420 278.064,385.600 277.513,385.600 276.976 C 385.600 276.439,385.780 276.000,386.000 276.000 C 386.220 276.000,386.400 275.728,386.400 275.395 C 386.400 275.062,386.559 274.477,386.753 274.095 C 386.948 273.713,387.308 272.905,387.553 272.300 C 387.799 271.695,388.173 270.795,388.385 270.300 C 389.348 268.047,391.600 260.688,391.600 259.794 C 391.600 259.247,391.780 258.800,392.000 258.800 C 392.220 258.800,392.400 258.170,392.400 257.400 C 392.400 256.630,392.580 256.000,392.800 256.000 C 393.020 256.000,393.200 255.370,393.200 254.600 C 393.200 253.830,393.380 253.200,393.600 253.200 C 393.820 253.200,394.000 252.570,394.000 251.800 C 394.000 251.030,394.180 250.400,394.400 250.400 C 394.620 250.400,394.800 249.691,394.800 248.824 C 394.800 247.957,394.980 247.136,395.200 247.000 C 395.420 246.864,395.600 245.953,395.600 244.976 C 395.600 243.999,395.780 243.200,396.000 243.200 C 396.220 243.200,396.400 242.480,396.400 241.600 C 396.400 240.720,396.580 240.000,396.800 240.000 C 397.020 240.000,397.200 239.010,397.200 237.800 C 397.200 236.590,397.380 235.600,397.600 235.600 C 397.820 235.600,398.000 234.621,398.000 233.424 C 398.000 232.227,398.180 231.136,398.400 231.000 C 398.620 230.864,398.800 229.518,398.800 228.010 C 398.800 226.171,398.965 225.212,399.300 225.100 C 399.693 224.969,399.800 219.591,399.800 200.000 C 399.800 180.409,399.693 175.031,399.300 174.900 C 398.965 174.788,398.800 173.829,398.800 171.990 C 398.800 170.482,398.620 169.136,398.400 169.000 C 398.180 168.864,398.000 167.773,398.000 166.576 C 398.000 165.379,397.820 164.400,397.600 164.400 C 397.380 164.400,397.200 163.410,397.200 162.200 C 397.200 160.990,397.020 160.000,396.800 160.000 C 396.580 160.000,396.400 159.280,396.400 158.400 C 396.400 157.520,396.220 156.800,396.000 156.800 C 395.780 156.800,395.600 156.001,395.600 155.024 C 395.600 154.047,395.420 153.136,395.200 153.000 C 394.980 152.864,394.800 152.043,394.800 151.176 C 394.800 150.309,394.620 149.600,394.400 149.600 C 394.180 149.600,394.000 148.970,394.000 148.200 C 394.000 147.430,393.820 146.800,393.600 146.800 C 393.380 146.800,393.200 146.170,393.200 145.400 C 393.200 144.630,393.020 144.000,392.800 144.000 C 392.580 144.000,392.400 143.370,392.400 142.600 C 392.400 141.830,392.220 141.200,392.000 141.200 C 391.780 141.200,391.600 140.753,391.600 140.206 C 391.600 139.350,389.416 132.162,388.438 129.800 C 387.380 127.245,387.072 126.531,386.753 125.905 C 386.559 125.523,386.400 124.938,386.400 124.605 C 386.400 124.272,386.220 124.000,386.000 124.000 C 385.780 124.000,385.600 123.561,385.600 123.024 C 385.600 122.487,385.420 121.936,385.200 121.800 C 384.980 121.664,384.800 121.203,384.800 120.776 C 384.800 120.349,384.620 120.000,384.400 120.000 C 384.180 120.000,384.000 119.640,384.000 119.200 C 384.000 118.760,383.820 118.400,383.600 118.400 C 383.380 118.400,383.200 118.040,383.200 117.600 C 383.200 117.160,383.020 116.800,382.800 116.800 C 382.580 116.800,382.400 116.350,382.400 115.800 C 382.400 115.250,382.220 114.800,382.000 114.800 C 381.780 114.800,381.600 114.547,381.600 114.238 C 381.600 113.572,379.932 110.259,379.500 110.067 C 379.335 109.993,379.200 109.588,379.200 109.167 C 379.200 108.745,379.020 108.400,378.800 108.400 C 378.580 108.400,378.400 108.040,378.400 107.600 C 378.400 107.160,378.220 106.800,378.000 106.800 C 377.780 106.800,377.600 106.440,377.600 106.000 C 377.600 105.560,377.420 105.200,377.200 105.200 C 376.980 105.200,376.800 104.964,376.800 104.675 C 376.800 104.387,376.440 103.764,376.000 103.292 C 375.560 102.820,375.200 102.252,375.200 102.030 C 375.200 101.358,373.874 98.800,373.526 98.800 C 373.347 98.800,373.200 98.440,373.200 98.000 C 373.200 97.560,373.064 97.200,372.898 97.200 C 372.731 97.200,372.371 96.694,372.097 96.075 C 371.824 95.456,371.240 94.564,370.800 94.092 C 370.360 93.620,370.000 92.996,370.000 92.705 C 370.000 92.414,369.640 91.917,369.200 91.600 C 368.760 91.283,368.400 90.743,368.400 90.400 C 368.400 90.057,368.040 89.517,367.600 89.200 C 367.160 88.883,366.800 88.343,366.800 88.000 C 366.800 87.657,366.440 87.117,366.000 86.800 C 365.560 86.483,365.200 85.991,365.200 85.708 C 365.200 85.425,364.660 84.628,364.000 83.937 C 363.340 83.246,362.800 82.478,362.800 82.229 C 362.800 81.980,362.440 81.517,362.000 81.200 C 361.560 80.883,361.200 80.375,361.200 80.072 C 361.200 79.769,360.660 79.017,360.000 78.400 C 359.340 77.783,358.800 77.126,358.800 76.939 C 358.800 76.753,358.080 75.812,357.200 74.849 C 356.320 73.887,355.600 72.946,355.600 72.758 C 355.600 72.571,354.610 71.427,353.400 70.217 C 352.190 69.007,351.200 67.842,351.200 67.628 C 351.200 67.413,349.310 65.344,347.000 63.028 C 344.690 60.712,342.800 58.940,342.800 59.090 C 342.800 59.240,342.485 58.944,342.100 58.432 C 340.875 56.805,332.776 48.800,332.353 48.800 C 332.130 48.800,331.092 47.921,330.047 46.848 C 329.001 45.774,327.581 44.604,326.892 44.248 C 326.203 43.892,325.496 43.371,325.320 43.090 C 325.144 42.810,324.460 42.238,323.800 41.820 C 323.140 41.401,322.123 40.550,321.540 39.929 C 320.956 39.308,320.231 38.800,319.928 38.800 C 319.625 38.800,319.117 38.440,318.800 38.000 C 318.483 37.560,318.020 37.200,317.771 37.200 C 317.522 37.200,316.754 36.660,316.063 36.000 C 315.372 35.340,314.575 34.800,314.292 34.800 C 314.009 34.800,313.517 34.440,313.200 34.000 C 312.883 33.560,312.343 33.200,312.000 33.200 C 311.657 33.200,311.117 32.840,310.800 32.400 C 310.483 31.960,309.943 31.600,309.600 31.600 C 309.257 31.600,308.717 31.240,308.400 30.800 C 308.083 30.360,307.671 30.000,307.484 30.000 C 307.297 30.000,306.359 29.460,305.400 28.800 C 304.441 28.140,303.463 27.600,303.228 27.600 C 302.993 27.600,302.800 27.409,302.800 27.176 C 302.800 26.943,302.635 26.855,302.432 26.980 C 302.230 27.105,301.816 26.959,301.513 26.656 C 300.840 25.983,298.603 24.800,298.003 24.800 C 297.763 24.800,297.180 24.440,296.708 24.000 C 296.236 23.560,295.613 23.200,295.325 23.200 C 295.036 23.200,294.800 23.020,294.800 22.800 C 294.800 22.580,294.440 22.400,294.000 22.400 C 293.560 22.400,293.200 22.220,293.200 22.000 C 293.200 21.780,292.840 21.600,292.400 21.600 C 291.960 21.600,291.600 21.420,291.600 21.200 C 291.600 20.980,291.255 20.800,290.833 20.800 C 290.412 20.800,290.007 20.665,289.933 20.500 C 289.741 20.068,286.428 18.400,285.762 18.400 C 285.453 18.400,285.200 18.220,285.200 18.000 C 285.200 17.780,284.750 17.600,284.200 17.600 C 283.650 17.600,283.200 17.420,283.200 17.200 C 283.200 16.980,282.840 16.800,282.400 16.800 C 281.960 16.800,281.600 16.620,281.600 16.400 C 281.600 16.180,281.240 16.000,280.800 16.000 C 280.360 16.000,280.000 15.820,280.000 15.600 C 280.000 15.380,279.651 15.200,279.224 15.200 C 278.797 15.200,278.336 15.020,278.200 14.800 C 278.064 14.580,277.513 14.400,276.976 14.400 C 276.439 14.400,276.000 14.220,276.000 14.000 C 276.000 13.780,275.728 13.600,275.395 13.600 C 275.062 13.600,274.477 13.441,274.095 13.247 C 271.170 11.759,262.936 8.990,261.900 9.145 C 261.515 9.203,261.200 9.059,261.200 8.825 C 261.200 8.591,260.660 8.400,260.000 8.400 C 259.340 8.400,258.800 8.220,258.800 8.000 C 258.800 7.780,258.170 7.600,257.400 7.600 C 256.630 7.600,256.000 7.420,256.000 7.200 C 256.000 6.980,255.370 6.800,254.600 6.800 C 253.830 6.800,253.200 6.620,253.200 6.400 C 253.200 6.180,252.570 6.000,251.800 6.000 C 251.030 6.000,250.400 5.820,250.400 5.600 C 250.400 5.380,249.691 5.200,248.824 5.200 C 247.957 5.200,247.136 5.020,247.000 4.800 C 246.864 4.580,245.953 4.400,244.976 4.400 C 243.999 4.400,243.200 4.220,243.200 4.000 C 243.200 3.780,242.480 3.600,241.600 3.600 C 240.720 3.600,240.000 3.420,240.000 3.200 C 240.000 2.980,239.010 2.800,237.800 2.800 C 236.590 2.800,235.600 2.620,235.600 2.400 C 235.600 2.180,234.621 2.000,233.424 2.000 C 232.227 2.000,231.136 1.820,231.000 1.600 C 230.864 1.380,229.518 1.200,228.010 1.200 C 226.233 1.200,225.210 1.031,225.107 0.720 C 224.948 0.244,188.291 -0.109,178.700 0.273 M128.093 85.242 C 129.692 85.486,131.313 85.846,131.695 86.042 C 132.077 86.239,132.707 86.399,133.095 86.397 C 136.020 86.383,145.013 93.089,146.799 96.617 C 147.129 97.267,147.489 97.890,147.600 98.000 C 147.711 98.110,148.047 98.740,148.347 99.400 C 148.648 100.060,149.052 100.913,149.247 101.295 C 149.441 101.677,149.600 102.406,149.600 102.915 C 149.600 103.424,149.804 104.044,150.053 104.293 C 151.208 105.448,150.541 116.543,149.151 119.295 C 148.958 119.677,148.800 120.262,148.800 120.595 C 148.800 120.928,148.620 121.200,148.400 121.200 C 148.180 121.200,148.000 121.560,148.000 122.000 C 148.000 122.440,147.820 122.800,147.600 122.800 C 147.380 122.800,147.200 123.027,147.200 123.304 C 147.200 124.097,144.058 127.651,141.211 130.079 C 139.711 131.358,134.936 133.694,132.400 134.390 C 131.410 134.661,130.187 135.045,129.681 135.242 C 128.494 135.704,118.475 135.708,116.960 135.247 C 116.322 135.052,114.990 134.661,114.000 134.377 C 113.010 134.093,112.029 133.712,111.820 133.530 C 111.611 133.349,111.116 133.200,110.720 133.200 C 110.324 133.200,110.000 133.020,110.000 132.800 C 110.000 132.580,109.640 132.400,109.200 132.400 C 108.760 132.400,108.400 132.220,108.400 132.000 C 108.400 131.780,108.175 131.597,107.900 131.593 C 106.175 131.568,101.130 126.259,98.997 122.225 C 93.241 111.337,96.794 95.753,106.300 90.189 C 107.015 89.770,107.600 89.286,107.600 89.114 C 107.600 88.941,107.960 88.800,108.400 88.800 C 108.840 88.800,109.200 88.620,109.200 88.400 C 109.200 88.180,109.560 88.000,110.000 88.000 C 110.440 88.000,110.800 87.820,110.800 87.600 C 110.800 87.380,111.072 87.200,111.405 87.200 C 111.738 87.200,112.323 87.038,112.705 86.839 C 115.794 85.233,123.071 84.478,128.093 85.242 M274.600 151.633 C 276.140 151.859,277.953 152.214,278.628 152.422 C 279.304 152.630,280.238 152.800,280.705 152.800 C 281.171 152.800,281.664 152.980,281.800 153.200 C 281.936 153.420,282.476 153.600,283.000 153.600 C 283.524 153.600,284.064 153.780,284.200 154.000 C 284.336 154.220,284.791 154.400,285.211 154.400 C 285.632 154.400,286.617 154.760,287.400 155.200 C 288.183 155.640,289.089 156.000,289.412 156.000 C 289.735 156.000,290.000 156.180,290.000 156.400 C 290.000 156.620,290.360 156.800,290.800 156.800 C 291.240 156.800,291.600 156.959,291.600 157.153 C 291.600 157.348,291.915 157.607,292.300 157.729 C 293.051 157.967,295.270 159.248,295.600 159.634 C 295.710 159.763,296.091 160.033,296.446 160.234 C 300.344 162.442,309.600 172.390,309.600 174.372 C 309.600 174.607,309.755 174.800,309.943 174.800 C 310.338 174.800,314.407 182.743,314.403 183.505 C 314.401 183.783,314.580 184.368,314.800 184.805 C 315.020 185.242,315.380 185.958,315.600 186.395 C 315.820 186.832,316.000 187.541,316.000 187.971 C 316.000 188.401,316.180 188.864,316.400 189.000 C 316.620 189.136,316.800 189.766,316.800 190.400 C 316.800 191.034,316.956 191.649,317.146 191.767 C 317.336 191.884,317.620 192.750,317.776 193.690 C 317.932 194.631,318.230 196.300,318.438 197.400 C 319.625 203.690,319.705 206.722,319.860 251.747 C 319.978 286.218,319.902 298.236,319.561 298.647 C 318.931 299.406,272.437 299.477,271.680 298.720 C 271.314 298.354,271.190 289.298,271.157 260.620 C 271.110 220.663,270.821 210.689,269.623 207.800 C 269.440 207.360,269.053 206.190,268.761 205.200 C 267.683 201.543,264.905 197.108,262.266 194.833 C 259.937 192.824,259.351 192.401,258.900 192.400 C 258.625 192.400,258.400 192.220,258.400 192.000 C 258.400 191.780,257.961 191.600,257.424 191.600 C 256.887 191.600,256.336 191.420,256.200 191.200 C 256.064 190.980,255.549 190.800,255.056 190.800 C 254.563 190.800,253.970 190.610,253.737 190.377 C 253.162 189.802,242.042 189.798,241.468 190.372 C 241.233 190.607,240.547 190.800,239.944 190.800 C 239.341 190.800,238.736 190.980,238.600 191.200 C 238.464 191.420,238.003 191.600,237.576 191.600 C 237.149 191.600,236.800 191.780,236.800 192.000 C 236.800 192.220,236.440 192.400,236.000 192.400 C 235.560 192.400,235.200 192.580,235.200 192.800 C 235.200 193.020,234.930 193.200,234.600 193.200 C 234.270 193.200,234.000 193.341,234.000 193.514 C 234.000 193.686,233.505 194.122,232.900 194.481 C 231.326 195.417,228.251 198.451,227.375 199.935 C 226.964 200.631,226.486 201.200,226.314 201.200 C 226.141 201.200,226.000 201.470,226.000 201.800 C 226.000 202.130,225.865 202.401,225.700 202.403 C 225.341 202.407,224.400 204.344,224.400 205.080 C 224.400 205.366,224.241 205.600,224.047 205.600 C 223.642 205.600,223.394 206.519,222.590 211.000 C 222.115 213.646,222.015 221.518,222.008 256.453 L 222.000 298.707 221.100 298.948 C 219.920 299.264,174.656 299.273,173.833 298.957 C 173.259 298.737,173.200 291.986,173.200 226.554 L 173.200 154.394 197.500 154.497 L 221.800 154.600 221.908 163.982 L 222.015 173.363 223.062 171.822 C 224.727 169.372,225.194 168.837,229.000 165.015 C 232.566 161.434,233.071 160.986,235.400 159.341 C 237.438 157.902,241.790 155.548,243.900 154.743 C 246.008 153.939,246.654 153.684,247.600 153.281 C 248.150 153.046,249.140 152.760,249.800 152.645 C 250.460 152.530,251.900 152.228,253.000 151.973 C 257.538 150.924,268.590 150.750,274.600 151.633 M147.903 226.400 C 147.999 293.549,147.961 298.232,147.326 298.700 C 146.361 299.411,99.990 299.430,99.280 298.720 C 98.754 298.194,98.545 155.188,99.070 154.664 C 99.218 154.515,110.243 154.440,123.570 154.497 L 147.800 154.600 147.903 226.400 " stroke="none" fill="#047cbc" fill-rule="evenodd"></path><path id="path3" d="M121.700 85.894 C 122.745 85.976,124.455 85.976,125.500 85.894 C 126.545 85.812,125.690 85.744,123.600 85.744 C 121.510 85.744,120.655 85.812,121.700 85.894 M116.000 86.400 C 115.205 86.914,116.204 86.914,117.400 86.400 L 118.200 86.056 117.400 86.034 C 116.960 86.022,116.330 86.187,116.000 86.400 M129.800 86.400 C 130.996 86.914,131.995 86.914,131.200 86.400 C 130.870 86.187,130.240 86.022,129.800 86.034 L 129.000 86.056 129.800 86.400 M113.200 87.200 C 112.667 87.545,112.667 87.588,113.200 87.588 C 113.530 87.588,114.070 87.413,114.400 87.200 C 114.933 86.855,114.933 86.812,114.400 86.812 C 114.070 86.812,113.530 86.987,113.200 87.200 M132.800 87.200 C 133.130 87.413,133.670 87.588,134.000 87.588 C 134.533 87.588,134.533 87.545,134.000 87.200 C 133.670 86.987,133.130 86.812,132.800 86.812 C 132.267 86.812,132.267 86.855,132.800 87.200 M137.000 88.871 C 138.320 89.549,139.490 90.224,139.600 90.371 C 139.710 90.518,140.430 91.052,141.200 91.557 L 142.600 92.476 141.200 91.225 C 139.874 90.040,135.580 87.578,134.911 87.619 C 134.740 87.630,135.680 88.193,137.000 88.871 M105.958 91.100 C 104.589 92.145,102.832 93.810,102.052 94.800 C 100.878 96.290,101.044 96.181,103.017 94.169 C 104.328 92.831,106.165 91.232,107.100 90.615 C 108.667 89.581,109.078 89.200,108.623 89.200 C 108.526 89.200,107.326 90.055,105.958 91.100 M144.168 94.500 C 145.009 95.545,145.777 96.400,145.875 96.400 C 146.192 96.400,144.517 94.226,143.563 93.400 C 143.055 92.960,143.328 93.455,144.168 94.500 M99.478 98.572 C 97.516 102.083,96.738 105.385,96.738 110.211 C 96.738 114.114,97.576 119.200,98.218 119.200 C 98.462 119.200,97.939 116.701,97.527 115.895 C 96.102 113.107,97.496 102.834,99.878 98.572 C 100.423 97.598,100.778 96.800,100.668 96.800 C 100.558 96.800,100.023 97.598,99.478 98.572 M146.009 97.100 C 146.014 97.265,146.385 97.850,146.833 98.400 L 147.648 99.400 147.014 98.100 C 146.411 96.865,145.989 96.445,146.009 97.100 M148.412 102.000 C 148.412 102.330,148.587 102.870,148.800 103.200 C 149.145 103.733,149.188 103.733,149.188 103.200 C 149.188 102.870,149.013 102.330,148.800 102.000 C 148.455 101.467,148.412 101.467,148.412 102.000 M149.275 104.600 C 149.286 105.040,149.432 105.940,149.600 106.600 L 149.905 107.800 149.925 106.600 C 149.935 105.940,149.789 105.040,149.600 104.600 L 149.256 103.800 149.275 104.600 M149.649 114.200 C 149.616 114.640,149.496 115.450,149.383 116.000 L 149.177 117.000 149.606 116.019 C 149.842 115.479,149.961 114.669,149.872 114.219 C 149.713 113.421,149.707 113.421,149.649 114.200 M148.600 118.000 C 148.450 118.473,148.417 118.950,148.527 119.060 C 148.637 119.170,148.850 118.873,149.000 118.400 C 149.150 117.927,149.183 117.450,149.073 117.340 C 148.963 117.230,148.750 117.527,148.600 118.000 M98.409 119.879 C 98.396 120.588,101.050 124.984,101.881 125.629 C 102.573 126.165,102.573 126.154,101.883 125.343 C 101.489 124.879,100.548 123.352,99.792 121.950 C 99.036 120.547,98.414 119.615,98.409 119.879 M146.614 122.635 C 146.241 123.204,146.027 123.761,146.139 123.872 C 146.250 123.983,146.629 123.518,146.981 122.837 C 147.759 121.333,147.544 121.215,146.614 122.635 M103.396 127.596 C 104.026 128.254,104.619 128.714,104.713 128.620 C 104.922 128.412,102.956 126.400,102.543 126.400 C 102.382 126.400,102.766 126.938,103.396 127.596 M142.860 127.451 C 142.343 128.002,141.996 128.529,142.089 128.622 C 142.182 128.715,142.774 128.254,143.404 127.596 C 144.034 126.938,144.381 126.411,144.175 126.424 C 143.969 126.438,143.377 126.900,142.860 127.451 M105.340 129.103 C 105.496 129.356,106.191 129.967,106.884 130.460 C 107.577 130.954,108.017 131.150,107.860 130.897 C 107.704 130.644,107.009 130.033,106.316 129.540 C 105.623 129.046,105.183 128.850,105.340 129.103 M140.081 129.772 C 138.448 130.927,138.166 131.203,138.633 131.189 C 138.835 131.183,139.630 130.648,140.400 130.000 C 142.073 128.591,141.913 128.476,140.081 129.772 M112.000 133.182 C 112.330 133.405,112.945 133.591,113.367 133.594 C 114.390 133.602,114.071 133.373,112.600 133.044 C 111.724 132.848,111.562 132.885,112.000 133.182 M114.800 134.000 C 115.130 134.213,115.760 134.378,116.200 134.366 L 117.000 134.344 116.200 134.000 C 115.004 133.486,114.005 133.486,114.800 134.000 M130.400 134.000 C 129.596 134.257,129.557 134.323,130.200 134.332 C 130.640 134.338,131.360 134.189,131.800 134.000 C 132.819 133.562,131.768 133.562,130.400 134.000 M118.600 134.870 C 120.632 135.230,125.261 135.225,127.600 134.859 C 128.708 134.686,127.017 134.579,123.200 134.582 C 119.507 134.584,117.647 134.701,118.600 134.870 M256.200 152.017 C 255.307 152.186,256.543 152.226,259.000 152.108 C 261.420 151.991,263.475 151.829,263.567 151.748 C 263.863 151.485,257.850 151.704,256.200 152.017 M266.033 151.744 C 266.125 151.824,268.090 151.985,270.400 152.103 C 273.140 152.242,274.044 152.200,273.000 151.981 C 271.435 151.654,265.704 151.459,266.033 151.744 M251.800 152.800 L 251.000 153.144 251.800 153.144 C 252.240 153.144,252.960 152.989,253.400 152.800 L 254.200 152.456 253.400 152.456 C 252.960 152.456,252.240 152.611,251.800 152.800 M276.200 152.800 C 276.640 152.989,277.360 153.144,277.800 153.144 L 278.600 153.144 277.800 152.800 C 277.360 152.611,276.640 152.456,276.200 152.456 L 275.400 152.456 276.200 152.800 M248.600 153.600 L 247.800 153.944 248.600 153.966 C 249.040 153.978,249.670 153.813,250.000 153.600 C 250.795 153.086,249.796 153.086,248.600 153.600 M279.800 153.600 C 280.996 154.114,281.995 154.114,281.200 153.600 C 280.870 153.387,280.240 153.222,279.800 153.234 L 279.000 153.256 279.800 153.600 M245.000 154.800 C 244.120 155.207,243.603 155.554,243.851 155.570 C 244.410 155.607,247.200 154.461,247.200 154.195 C 247.200 153.877,246.691 154.017,245.000 154.800 M99.467 155.067 C 99.096 155.437,99.129 298.400,99.500 298.400 C 99.665 298.400,99.754 266.236,99.698 226.925 C 99.616 169.926,99.697 155.385,100.098 155.131 C 100.394 154.943,100.422 154.810,100.167 154.806 C 99.928 154.803,99.613 154.920,99.467 155.067 M146.600 226.638 C 146.600 266.107,146.735 298.400,146.900 298.400 C 147.065 298.400,147.200 266.191,147.200 226.824 C 147.200 187.457,147.065 155.164,146.900 155.062 C 146.735 154.960,146.600 187.169,146.600 226.638 M173.671 225.700 C 173.734 287.814,173.782 293.031,174.063 267.800 C 174.443 233.678,174.329 154.800,173.900 154.800 C 173.735 154.800,173.632 186.705,173.671 225.700 M220.921 164.200 C 220.850 174.676,220.979 175.749,222.151 174.454 C 222.852 173.679,222.849 173.662,222.044 173.873 C 221.224 174.087,221.213 173.982,221.100 164.345 L 220.985 154.600 220.921 164.200 M238.700 157.829 C 238.095 158.157,237.600 158.510,237.600 158.613 C 237.600 158.999,238.232 158.757,239.200 158.000 C 240.389 157.070,240.211 157.009,238.700 157.829 M292.000 158.114 C 292.000 158.355,295.106 160.400,295.471 160.400 C 295.630 160.400,295.589 160.249,295.380 160.064 C 294.752 159.508,292.000 157.921,292.000 158.114 M234.516 160.651 C 231.881 162.757,226.400 168.035,226.400 168.466 C 226.400 168.623,227.345 167.750,228.500 166.525 C 229.655 165.300,231.950 163.211,233.600 161.881 C 237.342 158.867,237.418 158.800,237.096 158.800 C 236.950 158.800,235.789 159.633,234.516 160.651 M296.009 160.652 C 296.013 160.843,296.706 161.487,297.548 162.082 C 300.214 163.967,302.822 166.488,305.317 169.592 C 308.067 173.012,308.670 173.685,308.195 172.800 C 306.560 169.751,295.973 159.198,296.009 160.652 M225.144 169.900 C 223.852 171.460,223.519 172.000,223.851 171.995 C 224.043 171.992,224.607 171.362,225.104 170.595 C 226.072 169.101,226.092 168.756,225.144 169.900 M310.073 176.200 C 310.510 177.498,312.087 180.446,312.256 180.278 C 312.366 180.168,312.090 179.385,311.643 178.539 C 310.794 176.929,309.842 175.512,310.073 176.200 M314.812 186.800 C 314.812 187.130,314.987 187.670,315.200 188.000 C 315.545 188.533,315.588 188.533,315.588 188.000 C 315.588 187.670,315.413 187.130,315.200 186.800 C 314.855 186.267,314.812 186.267,314.812 186.800 M243.280 189.140 C 242.774 189.283,244.754 189.406,247.680 189.413 C 251.044 189.421,252.412 189.319,251.400 189.136 C 249.445 188.782,244.537 188.784,243.280 189.140 M315.612 189.600 C 315.612 189.930,315.787 190.470,316.000 190.800 C 316.345 191.333,316.388 191.333,316.388 190.800 C 316.388 190.470,316.213 189.930,316.000 189.600 C 315.655 189.067,315.612 189.067,315.612 189.600 M239.200 190.076 C 235.381 191.686,232.014 193.567,232.005 194.095 C 232.002 194.257,232.974 193.767,234.165 193.005 C 235.356 192.243,237.651 191.170,239.265 190.620 C 240.879 190.070,241.750 189.628,241.200 189.637 C 240.650 189.647,239.750 189.844,239.200 190.076 M256.000 190.655 C 257.650 191.216,259.315 191.956,259.700 192.300 C 260.085 192.643,260.400 192.737,260.400 192.508 C 260.400 191.855,255.072 189.595,253.600 189.623 C 253.270 189.630,254.350 190.094,256.000 190.655 M316.446 192.400 C 316.465 192.730,316.624 193.450,316.800 194.000 L 317.120 195.000 317.154 194.000 C 317.173 193.450,317.013 192.730,316.800 192.400 C 316.455 191.867,316.416 191.867,316.446 192.400 M262.988 194.859 C 264.280 196.039,265.997 198.215,267.013 199.959 C 269.092 203.526,269.419 203.530,267.442 199.964 C 266.091 197.527,261.940 192.800,261.150 192.800 C 260.922 192.800,261.749 193.726,262.988 194.859 M228.433 197.475 C 226.875 199.166,225.606 200.741,225.613 200.975 C 225.620 201.209,226.020 200.860,226.501 200.200 C 226.983 199.540,228.355 197.965,229.550 196.700 C 230.744 195.435,231.619 194.400,231.494 194.400 C 231.369 194.400,229.992 195.784,228.433 197.475 M317.280 196.000 C 317.280 196.550,317.424 197.450,317.600 198.000 L 317.920 199.000 317.920 198.000 C 317.920 197.450,317.776 196.550,317.600 196.000 L 317.280 195.000 317.280 196.000 M318.265 202.000 C 318.398 203.430,318.572 204.675,318.653 204.767 C 318.969 205.125,318.723 200.953,318.384 200.200 C 318.152 199.684,318.109 200.324,318.265 202.000 M268.812 203.600 C 268.812 203.930,268.987 204.470,269.200 204.800 C 269.545 205.333,269.588 205.333,269.588 204.800 C 269.588 204.470,269.413 203.930,269.200 203.600 C 268.855 203.067,268.812 203.067,268.812 203.600 M223.074 205.700 C 220.981 210.526,220.820 214.453,220.901 258.800 L 220.974 298.600 221.228 255.800 C 221.408 225.516,221.617 212.474,221.944 211.200 C 222.198 210.210,222.520 208.770,222.659 208.000 C 222.797 207.230,223.038 206.420,223.193 206.200 C 223.587 205.642,224.010 204.400,223.806 204.400 C 223.713 204.400,223.384 204.985,223.074 205.700 M319.104 248.800 C 319.161 272.230,319.259 293.020,319.321 295.000 C 319.383 296.980,319.454 278.800,319.477 254.600 C 319.501 230.400,319.404 209.610,319.260 208.400 C 319.117 207.190,319.047 225.370,319.104 248.800 M270.487 209.200 C 270.491 209.750,270.632 210.740,270.800 211.400 L 271.105 212.600 271.113 211.400 C 271.117 210.740,270.976 209.750,270.800 209.200 L 270.480 208.200 270.487 209.200 M271.516 255.729 C 271.579 278.863,271.759 297.919,271.916 298.076 C 272.072 298.232,272.110 279.394,272.000 256.213 C 271.890 233.033,271.710 213.976,271.600 213.866 C 271.490 213.756,271.452 232.594,271.516 255.729 " stroke="none" fill="#84bcd8" fill-rule="evenodd"></path><path id="path4" d="M119.801 85.151 C 119.142 85.292,120.851 85.407,123.600 85.407 C 126.349 85.407,128.058 85.292,127.399 85.151 C 126.739 85.010,125.030 84.895,123.600 84.895 C 122.170 84.895,120.461 85.010,119.801 85.151 M115.200 86.018 C 114.762 86.315,114.924 86.352,115.800 86.156 C 117.271 85.827,117.590 85.598,116.567 85.606 C 116.145 85.609,115.530 85.795,115.200 86.018 M130.600 86.000 C 131.701 86.473,132.092 86.473,131.800 86.000 C 131.664 85.780,131.158 85.613,130.676 85.628 C 129.831 85.655,129.829 85.669,130.600 86.000 M140.000 89.900 C 140.000 90.069,140.360 90.432,140.800 90.707 C 141.240 90.982,141.600 91.069,141.600 90.900 C 141.600 90.731,141.240 90.368,140.800 90.093 C 140.360 89.818,140.000 89.731,140.000 89.900 M101.159 94.962 C 100.587 95.643,99.908 96.650,99.651 97.200 C 99.257 98.044,99.263 98.081,99.692 97.438 C 99.971 97.019,100.719 96.068,101.353 95.325 C 101.988 94.581,102.438 93.917,102.353 93.849 C 102.269 93.780,101.732 94.281,101.159 94.962 M98.252 99.746 C 97.327 101.695,97.470 102.124,98.414 100.232 C 98.845 99.369,99.131 98.598,99.051 98.517 C 98.970 98.437,98.611 98.990,98.252 99.746 M148.828 101.476 C 148.918 102.515,149.544 103.396,149.572 102.524 C 149.587 102.042,149.420 101.536,149.200 101.400 C 148.980 101.264,148.813 101.298,148.828 101.476 M149.993 106.119 L 150.185 108.200 150.318 106.446 C 150.391 105.481,150.305 104.544,150.126 104.365 C 149.947 104.185,149.887 104.975,149.993 106.119 M96.229 107.229 C 96.076 108.579,96.033 109.766,96.133 109.867 C 96.234 109.967,96.444 108.947,96.600 107.600 C 96.756 106.253,96.799 105.066,96.695 104.962 C 96.591 104.858,96.381 105.878,96.229 107.229 M150.514 110.600 C 150.517 111.700,150.595 112.103,150.687 111.495 C 150.779 110.886,150.777 109.986,150.682 109.495 C 150.587 109.003,150.511 109.500,150.514 110.600 M96.070 111.600 C 96.057 112.150,96.195 113.320,96.377 114.200 L 96.708 115.800 96.707 114.400 C 96.705 112.635,96.109 110.012,96.070 111.600 M150.067 114.467 C 150.030 115.274,149.896 116.264,149.770 116.667 C 149.553 117.357,149.566 117.359,149.994 116.693 C 150.243 116.304,150.377 115.314,150.291 114.493 L 150.134 113.000 150.067 114.467 M149.246 117.867 C 149.221 118.124,149.084 118.664,148.941 119.067 C 148.740 119.636,148.794 119.697,149.179 119.342 C 149.452 119.091,149.589 118.551,149.484 118.142 C 149.379 117.734,149.272 117.610,149.246 117.867 M99.433 123.092 C 100.047 124.243,100.614 125.119,100.694 125.039 C 100.867 124.866,99.298 121.971,98.721 121.400 C 98.499 121.180,98.819 121.942,99.433 123.092 M101.903 126.600 C 102.724 127.815,104.400 129.501,104.400 129.113 C 104.400 128.996,103.656 128.113,102.746 127.151 C 101.628 125.967,101.355 125.789,101.903 126.600 M142.600 128.476 L 141.800 129.304 142.678 128.850 C 143.602 128.372,144.274 127.583,143.724 127.624 C 143.546 127.637,143.040 128.020,142.600 128.476 M106.000 130.285 C 106.000 130.634,107.599 131.738,107.800 131.528 C 107.867 131.457,107.489 131.077,106.961 130.681 C 106.432 130.286,106.000 130.108,106.000 130.285 M139.656 130.834 C 139.136 131.255,138.866 131.594,139.056 131.587 C 139.544 131.569,140.976 130.443,140.771 130.239 C 140.677 130.145,140.175 130.413,139.656 130.834 M113.639 134.156 C 114.708 135.298,127.956 136.250,129.463 135.294 C 129.717 135.132,127.402 135.063,124.318 135.139 C 120.781 135.227,118.025 135.101,116.855 134.797 C 115.835 134.531,114.640 134.221,114.200 134.108 C 113.760 133.994,113.508 134.016,113.639 134.156 M131.200 134.400 C 130.376 134.664,130.341 134.726,131.000 134.754 C 131.440 134.773,132.070 134.613,132.400 134.400 C 133.101 133.947,132.614 133.947,131.200 134.400 M263.900 151.082 C 264.395 151.178,265.205 151.178,265.700 151.082 C 266.195 150.987,265.790 150.909,264.800 150.909 C 263.810 150.909,263.405 150.987,263.900 151.082 M254.928 151.512 C 254.668 151.678,255.838 151.757,257.528 151.689 C 262.086 151.506,262.651 151.315,258.800 151.261 C 256.930 151.234,255.188 151.347,254.928 151.512 M268.033 151.347 C 268.125 151.428,269.820 151.581,271.800 151.688 C 273.780 151.794,274.950 151.746,274.400 151.580 C 273.397 151.279,267.720 151.071,268.033 151.347 M251.200 152.406 C 250.778 152.682,251.015 152.723,252.000 152.542 C 253.725 152.225,254.051 151.998,252.767 152.006 C 252.235 152.009,251.530 152.189,251.200 152.406 M276.433 152.143 C 276.525 152.221,277.230 152.401,278.000 152.542 C 278.985 152.723,279.222 152.682,278.800 152.406 C 278.258 152.050,276.037 151.803,276.433 152.143 M247.790 153.216 C 247.621 153.489,247.923 153.538,248.666 153.360 C 250.199 152.992,250.344 152.800,249.090 152.800 C 248.517 152.800,247.932 152.987,247.790 153.216 M99.067 154.667 C 98.544 155.189,98.756 298.196,99.280 298.720 C 99.990 299.430,146.361 299.411,147.326 298.700 C 148.308 297.977,148.183 154.784,147.200 154.483 C 146.716 154.335,146.696 154.402,147.100 154.830 C 147.874 155.650,147.830 297.712,147.055 298.354 C 146.660 298.682,140.020 298.778,122.955 298.703 L 99.400 298.600 99.400 226.500 C 99.400 186.845,99.385 154.400,99.367 154.400 C 99.348 154.400,99.213 154.520,99.067 154.667 M221.190 154.663 C 221.452 154.793,221.600 158.165,221.600 164.010 C 221.600 169.038,221.735 173.236,221.900 173.339 C 222.065 173.441,222.110 169.281,222.000 164.095 C 221.847 156.901,221.679 154.641,221.290 154.563 C 221.010 154.506,220.965 154.552,221.190 154.663 M229.854 164.100 L 226.543 167.400 229.571 164.623 C 231.237 163.095,232.864 161.610,233.186 161.323 C 233.508 161.035,233.635 160.800,233.468 160.800 C 233.302 160.800,231.675 162.285,229.854 164.100 M300.443 163.500 C 300.467 163.665,301.502 164.694,302.743 165.787 L 305.000 167.774 302.814 165.487 C 300.584 163.155,300.367 162.973,300.443 163.500 M173.392 211.000 C 173.392 231.240,173.440 239.579,173.500 229.530 C 173.559 219.482,173.559 202.922,173.500 192.730 C 173.440 182.539,173.392 190.760,173.392 211.000 M245.200 189.580 C 243.811 189.786,244.250 189.855,247.123 189.880 C 249.170 189.898,250.790 189.865,250.723 189.807 C 250.359 189.497,246.755 189.348,245.200 189.580 M317.152 192.887 C 317.337 193.998,317.393 194.055,317.519 193.254 C 317.601 192.733,317.503 192.143,317.301 191.941 C 317.079 191.719,317.021 192.093,317.152 192.887 M317.873 196.000 C 318.004 196.990,318.176 197.875,318.256 197.967 C 318.557 198.314,318.328 195.764,317.990 195.000 C 317.753 194.466,317.714 194.798,317.873 196.000 M262.812 195.056 C 262.826 195.484,265.204 198.129,265.399 197.934 C 265.477 197.856,264.924 197.099,264.171 196.252 C 263.417 195.405,262.805 194.867,262.812 195.056 M318.924 202.200 C 318.926 203.520,319.001 204.012,319.090 203.293 C 319.179 202.574,319.177 201.494,319.086 200.893 C 318.995 200.292,318.922 200.880,318.924 202.200 M319.793 252.800 C 319.793 277.990,319.841 288.295,319.900 275.700 C 319.959 263.105,319.959 242.495,319.900 229.900 C 319.841 217.305,319.793 227.610,319.793 252.800 M270.006 210.233 C 270.009 210.875,270.184 211.670,270.395 212.000 C 270.655 212.409,270.699 212.090,270.532 211.000 C 270.229 209.023,269.998 208.686,270.006 210.233 M222.249 210.615 C 222.112 210.973,222.021 211.746,222.046 212.333 C 222.080 213.132,222.170 212.998,222.404 211.800 C 222.735 210.100,222.662 209.540,222.249 210.615 M271.131 256.329 C 271.219 284.672,271.397 298.355,271.680 298.696 C 272.009 299.093,277.128 299.180,295.749 299.105 L 319.400 299.010 295.600 298.805 L 271.800 298.600 271.600 256.733 C 271.490 233.706,271.310 214.776,271.200 214.666 C 271.090 214.556,271.059 233.305,271.131 256.329 M221.504 258.200 C 221.447 280.530,221.535 298.800,221.700 298.800 C 221.865 298.800,222.000 280.530,222.000 258.200 C 222.000 235.870,221.912 217.600,221.804 217.600 C 221.696 217.600,221.561 235.870,221.504 258.200 M185.729 299.100 C 192.289 299.162,202.909 299.161,209.329 299.100 C 215.748 299.038,210.380 298.987,197.400 298.988 C 184.420 298.988,179.168 299.038,185.729 299.100 " stroke="none" fill="#1c8cc4" fill-rule="evenodd"></path></g></svg>