<svg id="Layer_1" data-name="Layer 1" xmlns="http://www.w3.org/2000/svg" viewBox="0 0 501 159.72"><defs><style>.cls-1{fill:#636466;}.cls-2{fill:#a41e11;}.cls-3{fill:#d82c20;}.cls-4{fill:#fff;}.cls-5{fill:#7a0c00;}.cls-6{fill:#ad2115;}</style></defs><title>redis</title><path class="cls-1" d="M274.2,49.47a7.55,7.55,0,0,1-7.5,7.5,13.5,13.5,0,0,0-8.49,2.69,21.23,21.23,0,0,0-6.51,6.79c-3.4,4.53-5.1,9.91-5.81,11.89v26.9a7.7,7.7,0,0,1-7.78,7.5,7.55,7.55,0,0,1-7.51-7.5V49.47a7.44,7.44,0,0,1,7.51-7.37,7.59,7.59,0,0,1,7.78,7.37v1a18.35,18.35,0,0,1,3-2.83A31,31,0,0,1,266.7,42.1a7.34,7.34,0,0,1,7.5,7.37Z"/><path class="cls-1" d="M270.05,77.36C270.19,58.1,285.2,42,304.59,42c18.41,0,33,13.73,34.12,32.84v.7a4,4,0,0,1-.14,1.28c-.43,3.4-3.4,5.66-7.36,5.66h-45A18.51,18.51,0,0,0,291,91.79c3,3.4,8.64,5.95,13.59,6.37,5.1.43,11.19-.85,14.72-3.54,3-3.11,8.78-2.68,10.62-.42,1.84,2,3.26,6.23,0,9.2-6.94,6.37-15.29,9.34-25.34,9.34-19.39-.14-34.4-16.13-34.54-35.38Zm15.43-6.94h40.06c-1.41-5.66-8.63-14-21-15C292.56,56,286.61,64.62,285.48,70.42Z"/><path class="cls-1" d="M410.82,105.1a7.65,7.65,0,0,1-15.14,1.56,34.56,34.56,0,0,1-19.25,6.09c-19.11,0-34.4-16.14-34.4-35.25C342,58.1,357.32,42,376.43,42a33.48,33.48,0,0,1,19,5.94V21.3a7.72,7.72,0,0,1,15.43,0v83.8ZM376.43,57.4a18.33,18.33,0,0,0-13.31,5.8,20.53,20.53,0,0,0,0,28.31,18.34,18.34,0,0,0,13.31,5.81,18.1,18.1,0,0,0,13.3-5.81,20.53,20.53,0,0,0,0-28.31A18.09,18.09,0,0,0,376.43,57.4Z"/><path class="cls-1" d="M437.76,24.27a7.64,7.64,0,0,1-7.64,7.79,7.74,7.74,0,0,1-7.65-7.79v-3a7.62,7.62,0,0,1,7.65-7.65,7.52,7.52,0,0,1,7.64,7.65v3Zm0,25.62V105.1a7.52,7.52,0,0,1-7.64,7.65,7.62,7.62,0,0,1-7.65-7.65V49.89a7.56,7.56,0,0,1,7.65-7.78A7.47,7.47,0,0,1,437.76,49.89Z"/><path class="cls-1" d="M447.49,92.49a7.37,7.37,0,0,1,10.62-1.13c3.68,3.12,10.05,6.37,15.57,6.23a18.81,18.81,0,0,0,9.62-2.69c2-1.7,2.55-3.11,2.55-4.25a2.12,2.12,0,0,0-.42-1.41c-.15-.43-.71-1-1.85-1.7-2-1.41-6.22-3-11.32-4h-.14A54.31,54.31,0,0,1,459.8,79.9,23.61,23.61,0,0,1,450,71.69a17.16,17.16,0,0,1-2.41-8.92c0-6.51,3.68-12,8.35-15.57A30.44,30.44,0,0,1,473.39,42c9.77,0,16.71,4.67,21.24,7.78a7.82,7.82,0,0,1,2.26,10.48,7.48,7.48,0,0,1-10.47,2c-4.53-3-8.5-5.24-13-5.24a14.44,14.44,0,0,0-8.49,2.55c-1.84,1.28-2.26,2.55-2.26,3.26a1.53,1.53,0,0,0,.28,1.13,3.8,3.8,0,0,0,1.56,1.41c1.84,1.28,5.52,2.55,10.33,3.4l.14.14h.14A51,51,0,0,1,488.26,73a22,22,0,0,1,10.05,8.35A18.32,18.32,0,0,1,501,90.65c0,6.94-3.82,12.74-8.92,16.42a32.2,32.2,0,0,1-18.4,5.67c-11-.14-19.54-5.24-25.2-9.77a7.56,7.56,0,0,1-1-10.48Z"/><path class="cls-2" d="M179,123.16c-9.94,5.18-61.46,26.36-72.42,32.08s-17.06,5.66-25.73,1.52-63.48-26.29-73.36-31C2.6,123.39,0,121.4,0,119.52V100.69S71.37,85.15,82.9,81s15.51-4.29,25.32-.7S176.65,94.49,186.35,98c0,0,0,16.83,0,18.57s-2.23,3.91-7.3,6.54Z"/><path class="cls-3" d="M179,104.31c-9.94,5.19-61.46,26.37-72.42,32.09s-17.06,5.66-25.73,1.52-63.48-26.29-73.36-31-10.08-8-.38-11.77S71.37,70,82.9,65.82s15.51-4.28,25.32-.69,61,24,70.7,27.52,10.07,6.48.12,11.66Z"/><path class="cls-2" d="M179,92.44c-9.94,5.18-61.46,26.36-72.42,32.08S89.56,130.18,80.89,126,17.41,99.76,7.53,95C2.6,92.68,0,90.69,0,88.81V70S71.37,54.43,82.9,50.3s15.51-4.28,25.32-.69,68.43,14.17,78.13,17.72c0,0,0,16.82,0,18.57S184.11,89.8,179,92.44Z"/><path class="cls-3" d="M179,73.6c-9.94,5.18-61.46,26.36-72.42,32.08s-17.06,5.66-25.73,1.52S17.41,80.91,7.53,76.2s-10.08-8-.38-11.77S71.37,39.24,82.9,35.11s15.51-4.29,25.32-.7,61,24,70.7,27.53S189,68.41,179,73.6Z"/><path class="cls-2" d="M179,60.58C169.1,65.77,117.58,87,106.62,92.67s-17.06,5.66-25.73,1.52S17.41,67.9,7.53,63.18C2.6,60.82,0,58.83,0,57V38.12S71.37,22.58,82.9,18.45s15.51-4.29,25.32-.69,68.43,14.16,78.13,17.71c0,0,0,16.83,0,18.57S184.11,58,179,60.58Z"/><path class="cls-3" d="M179,41.74c-9.94,5.19-61.46,26.37-72.42,32.09s-17.06,5.66-25.73,1.52-63.48-26.29-73.36-31-10.08-8-.38-11.77S71.37,7.39,82.9,3.25,98.41-1,108.22,2.56s61,24,70.7,27.52S189,36.56,179,41.74Z"/><polygon class="cls-4" points="117.59 23.6 101.44 25.28 97.83 33.98 91.99 24.27 73.35 22.59 87.26 17.58 83.09 9.88 96.11 14.97 108.39 10.95 105.07 18.91 117.59 23.6"/><polygon class="cls-4" points="96.87 65.8 66.73 53.3 109.91 46.67 96.87 65.8"/><ellipse class="cls-4" cx="55.09" cy="37.38" rx="23.08" ry="8.95"/><polygon class="cls-5" points="136.67 25.98 162.23 36.08 136.7 46.17 136.67 25.98"/><polygon class="cls-6" points="108.4 37.16 136.67 25.98 136.7 46.17 133.92 47.25 108.4 37.16"/></svg>